<?xml version="1.0" encoding="utf-8" standalone="no"?>
<!DOCTYPE svg PUBLIC "-//W3C//DTD SVG 1.1//EN"
  "http://www.w3.org/Graphics/SVG/1.1/DTD/svg11.dtd">
<svg xmlns:xlink="http://www.w3.org/1999/xlink" width="1144.8pt" height="640.8pt" viewBox="0 0 1144.8 640.8" xmlns="http://www.w3.org/2000/svg" version="1.1">
 <metadata>
  <rdf:RDF xmlns:dc="http://purl.org/dc/elements/1.1/" xmlns:cc="http://creativecommons.org/ns#" xmlns:rdf="http://www.w3.org/1999/02/22-rdf-syntax-ns#">
   <cc:Work>
    <dc:type rdf:resource="http://purl.org/dc/dcmitype/StillImage"/>
    <dc:date>2025-11-09T19:18:15.352496</dc:date>
    <dc:format>image/svg+xml</dc:format>
    <dc:creator>
     <cc:Agent>
      <dc:title>Matplotlib v3.6.3, https://matplotlib.org/</dc:title>
     </cc:Agent>
    </dc:creator>
   </cc:Work>
  </rdf:RDF>
 </metadata>
 <defs>
  <style type="text/css">*{stroke-linejoin: round; stroke-linecap: butt}</style>
 </defs>
 <g id="figure_1">
  <g id="patch_1">
   <path d="M 0 640.8 
L 1144.8 640.8 
L 1144.8 0 
L 0 0 
z
" style="fill: #0a0f1c"/>
  </g>
  <g id="axes_1">
   <g id="patch_2">
    <path d="M 29.808 621.072 
L 1114.992 621.072 
Q 1137.6 621.072 1137.6 608.544 
L 1137.6 32.256 
Q 1137.6 19.728 1114.992 19.728 
L 29.808 19.728 
Q 7.2 19.728 7.2 32.256 
L 7.2 608.544 
Q 7.2 621.072 29.808 621.072 
L 29.808 621.072 
z
" clip-path="url(#p37fb936896)" style="fill: none; stroke: #facc15; stroke-width: 1.5; stroke-linejoin: miter"/>
   </g>
   <g id="line2d_1">
    <path d="M 75.024 483.264 
L 1069.776 483.264 
" clip-path="url(#p37fb936896)" style="fill: none; stroke: #facc15; stroke-opacity: 0.25; stroke-width: 0.5; stroke-linecap: square"/>
   </g>
   <g id="line2d_2">
    <path d="M 75.024 307.872 
L 1069.776 307.872 
" clip-path="url(#p37fb936896)" style="fill: none; stroke: #facc15; stroke-opacity: 0.25; stroke-width: 0.5; stroke-linecap: square"/>
   </g>
   <g id="line2d_3">
    <path d="M 75.024 132.48 
L 1069.776 132.48 
" clip-path="url(#p37fb936896)" style="fill: none; stroke: #facc15; stroke-opacity: 0.25; stroke-width: 0.5; stroke-linecap: square"/>
   </g>
   <g id="line2d_4">
    <path d="M 572.4 583.488 
L 572.4 82.368 
" clip-path="url(#p37fb936896)" style="fill: none; stroke: #facc15; stroke-opacity: 0.25; stroke-width: 0.5; stroke-linecap: square"/>
   </g>
   <g id="text_1">
    <!-- Архитектоника Аз 1–49 -->
    <g style="fill: #fde68a" transform="translate(411.33375 45.1425) scale(0.24 -0.24)">
     <defs>
      <path id="DejaVuSans-Bold-410" d="M 3419 850 
L 1538 850 
L 1241 0 
L 31 0 
L 1759 4666 
L 3194 4666 
L 4922 0 
L 3713 0 
L 3419 850 
z
M 1838 1716 
L 3116 1716 
L 2478 3572 
L 1838 1716 
z
" transform="scale(0.015625)"/>
      <path id="DejaVuSans-Bold-440" d="M 1656 506 
L 1656 -1331 
L 538 -1331 
L 538 3500 
L 1656 3500 
L 1656 2988 
Q 1888 3294 2169 3439 
Q 2450 3584 2816 3584 
Q 3463 3584 3878 3070 
Q 4294 2556 4294 1747 
Q 4294 938 3878 423 
Q 3463 -91 2816 -91 
Q 2450 -91 2169 54 
Q 1888 200 1656 506 
z
M 2400 2772 
Q 2041 2772 1848 2508 
Q 1656 2244 1656 1747 
Q 1656 1250 1848 986 
Q 2041 722 2400 722 
Q 2759 722 2948 984 
Q 3138 1247 3138 1747 
Q 3138 2247 2948 2509 
Q 2759 2772 2400 2772 
z
" transform="scale(0.015625)"/>
      <path id="DejaVuSans-Bold-445" d="M 1422 1791 
L 159 3500 
L 1344 3500 
L 2059 2463 
L 2784 3500 
L 3969 3500 
L 2706 1797 
L 4031 0 
L 2847 0 
L 2059 1106 
L 1281 0 
L 97 0 
L 1422 1791 
z
" transform="scale(0.015625)"/>
      <path id="DejaVuSans-Bold-438" d="M 3947 3500 
L 3947 0 
L 2828 0 
L 2828 1863 
L 1700 0 
L 538 0 
L 538 3500 
L 1656 3500 
L 1656 1638 
L 2784 3500 
L 3947 3500 
z
" transform="scale(0.015625)"/>
      <path id="DejaVuSans-Bold-442" d="M 25 3500 
L 3681 3500 
L 3681 2809 
L 2413 2809 
L 2413 0 
L 1297 0 
L 1297 2809 
L 25 2809 
L 25 3500 
z
" transform="scale(0.015625)"/>
      <path id="DejaVuSans-Bold-435" d="M 4031 1759 
L 4031 1441 
L 1416 1441 
Q 1456 1047 1700 850 
Q 1944 653 2381 653 
Q 2734 653 3104 758 
Q 3475 863 3866 1075 
L 3866 213 
Q 3469 63 3072 -14 
Q 2675 -91 2278 -91 
Q 1328 -91 801 392 
Q 275 875 275 1747 
Q 275 2603 792 3093 
Q 1309 3584 2216 3584 
Q 3041 3584 3536 3087 
Q 4031 2591 4031 1759 
z
M 2881 2131 
Q 2881 2450 2695 2645 
Q 2509 2841 2209 2841 
Q 1884 2841 1681 2658 
Q 1478 2475 1428 2131 
L 2881 2131 
z
" transform="scale(0.015625)"/>
      <path id="DejaVuSans-Bold-43a" d="M 538 3500 
L 1656 3500 
L 1656 2316 
L 2903 3500 
L 4128 3500 
L 2634 2078 
L 4250 0 
L 3094 0 
L 1972 1447 
L 1656 1147 
L 1656 0 
L 538 0 
L 538 3500 
z
" transform="scale(0.015625)"/>
      <path id="DejaVuSans-Bold-43e" d="M 2203 2784 
Q 1831 2784 1636 2517 
Q 1441 2250 1441 1747 
Q 1441 1244 1636 976 
Q 1831 709 2203 709 
Q 2569 709 2762 976 
Q 2956 1244 2956 1747 
Q 2956 2250 2762 2517 
Q 2569 2784 2203 2784 
z
M 2203 3584 
Q 3106 3584 3614 3096 
Q 4122 2609 4122 1747 
Q 4122 884 3614 396 
Q 3106 -91 2203 -91 
Q 1297 -91 786 396 
Q 275 884 275 1747 
Q 275 2609 786 3096 
Q 1297 3584 2203 3584 
z
" transform="scale(0.015625)"/>
      <path id="DejaVuSans-Bold-43d" d="M 538 3500 
L 1656 3500 
L 1656 2169 
L 2766 2169 
L 2766 3500 
L 3884 3500 
L 3884 0 
L 2766 0 
L 2766 1478 
L 1656 1478 
L 1656 0 
L 538 0 
L 538 3500 
z
" transform="scale(0.015625)"/>
      <path id="DejaVuSans-Bold-430" d="M 2106 1575 
Q 1756 1575 1579 1456 
Q 1403 1338 1403 1106 
Q 1403 894 1545 773 
Q 1688 653 1941 653 
Q 2256 653 2472 879 
Q 2688 1106 2688 1447 
L 2688 1575 
L 2106 1575 
z
M 3816 1997 
L 3816 0 
L 2688 0 
L 2688 519 
Q 2463 200 2181 54 
Q 1900 -91 1497 -91 
Q 953 -91 614 226 
Q 275 544 275 1050 
Q 275 1666 698 1953 
Q 1122 2241 2028 2241 
L 2688 2241 
L 2688 2328 
Q 2688 2594 2478 2717 
Q 2269 2841 1825 2841 
Q 1466 2841 1156 2769 
Q 847 2697 581 2553 
L 581 3406 
Q 941 3494 1303 3539 
Q 1666 3584 2028 3584 
Q 2975 3584 3395 3211 
Q 3816 2838 3816 1997 
z
" transform="scale(0.015625)"/>
      <path id="DejaVuSans-Bold-20" transform="scale(0.015625)"/>
      <path id="DejaVuSans-Bold-437" d="M 900 2181 
L 1413 2181 
Q 1872 2181 2039 2281 
Q 2206 2381 2206 2519 
Q 2206 2841 1469 2841 
Q 853 2841 472 2625 
L 472 3434 
Q 1041 3584 1713 3584 
Q 2500 3584 2862 3361 
Q 3225 3138 3225 2666 
Q 3225 2047 2541 1888 
Q 3313 1697 3313 994 
Q 3313 453 2888 181 
Q 2463 -91 1553 -91 
Q 875 -91 313 84 
L 313 947 
Q 1013 653 1428 653 
Q 1884 653 2089 776 
Q 2294 900 2294 1056 
Q 2294 1491 1394 1491 
L 900 1491 
L 900 2181 
z
" transform="scale(0.015625)"/>
      <path id="DejaVuSans-Bold-31" d="M 750 831 
L 1813 831 
L 1813 3847 
L 722 3622 
L 722 4441 
L 1806 4666 
L 2950 4666 
L 2950 831 
L 4013 831 
L 4013 0 
L 750 0 
L 750 831 
z
" transform="scale(0.015625)"/>
      <path id="DejaVuSans-Bold-2013" d="M 344 2156 
L 2856 2156 
L 2856 1350 
L 344 1350 
L 344 2156 
z
" transform="scale(0.015625)"/>
      <path id="DejaVuSans-Bold-34" d="M 2356 3675 
L 1038 1722 
L 2356 1722 
L 2356 3675 
z
M 2156 4666 
L 3494 4666 
L 3494 1722 
L 4159 1722 
L 4159 850 
L 3494 850 
L 3494 0 
L 2356 0 
L 2356 850 
L 288 850 
L 288 1881 
L 2156 4666 
z
" transform="scale(0.015625)"/>
      <path id="DejaVuSans-Bold-39" d="M 641 103 
L 641 966 
Q 928 831 1190 764 
Q 1453 697 1709 697 
Q 2247 697 2547 995 
Q 2847 1294 2900 1881 
Q 2688 1725 2447 1647 
Q 2206 1569 1925 1569 
Q 1209 1569 770 1986 
Q 331 2403 331 3084 
Q 331 3838 820 4291 
Q 1309 4744 2131 4744 
Q 3044 4744 3544 4128 
Q 4044 3513 4044 2388 
Q 4044 1231 3459 570 
Q 2875 -91 1856 -91 
Q 1528 -91 1228 -42 
Q 928 6 641 103 
z
M 2125 2350 
Q 2441 2350 2600 2554 
Q 2759 2759 2759 3169 
Q 2759 3575 2600 3781 
Q 2441 3988 2125 3988 
Q 1809 3988 1650 3781 
Q 1491 3575 1491 3169 
Q 1491 2759 1650 2554 
Q 1809 2350 2125 2350 
z
" transform="scale(0.015625)"/>
     </defs>
     <use xlink:href="#DejaVuSans-Bold-410"/>
     <use xlink:href="#DejaVuSans-Bold-440" x="77.392578"/>
     <use xlink:href="#DejaVuSans-Bold-445" x="148.974609"/>
     <use xlink:href="#DejaVuSans-Bold-438" x="213.476562"/>
     <use xlink:href="#DejaVuSans-Bold-442" x="283.544922"/>
     <use xlink:href="#DejaVuSans-Bold-435" x="341.503906"/>
     <use xlink:href="#DejaVuSans-Bold-43a" x="409.326172"/>
     <use xlink:href="#DejaVuSans-Bold-442" x="477.197266"/>
     <use xlink:href="#DejaVuSans-Bold-43e" x="535.15625"/>
     <use xlink:href="#DejaVuSans-Bold-43d" x="603.857422"/>
     <use xlink:href="#DejaVuSans-Bold-438" x="672.949219"/>
     <use xlink:href="#DejaVuSans-Bold-43a" x="743.017578"/>
     <use xlink:href="#DejaVuSans-Bold-430" x="810.888672"/>
     <use xlink:href="#DejaVuSans-Bold-20" x="878.369141"/>
     <use xlink:href="#DejaVuSans-Bold-410" x="913.183594"/>
     <use xlink:href="#DejaVuSans-Bold-437" x="990.576172"/>
     <use xlink:href="#DejaVuSans-Bold-20" x="1048.681641"/>
     <use xlink:href="#DejaVuSans-Bold-31" x="1083.496094"/>
     <use xlink:href="#DejaVuSans-Bold-2013" x="1153.076172"/>
     <use xlink:href="#DejaVuSans-Bold-34" x="1203.076172"/>
     <use xlink:href="#DejaVuSans-Bold-39" x="1272.65625"/>
    </g>
   </g>
   <g id="text_2">
    <!-- Форма → Поле → Свет -->
    <g style="fill: #fde68a" transform="translate(491.719531 67.439125) scale(0.14 -0.14)">
     <defs>
      <path id="DejaVuSans-424" d="M 2441 3706 
Q 1763 3644 1403 3325 
Q 1044 3006 1044 2391 
Q 1044 1775 1403 1458 
Q 1763 1141 2441 1078 
L 2441 3706 
z
M 3075 1078 
Q 3753 1141 4109 1458 
Q 4466 1775 4466 2391 
Q 4466 3006 4109 3325 
Q 3753 3644 3075 3706 
L 3075 1078 
z
M 2441 556 
Q 1450 628 914 1095 
Q 378 1563 378 2391 
Q 378 3219 914 3689 
Q 1450 4159 2441 4231 
L 2441 4666 
L 3075 4666 
L 3075 4231 
Q 4066 4159 4598 3692 
Q 5131 3225 5131 2391 
Q 5131 1563 4598 1095 
Q 4066 628 3075 556 
L 3075 0 
L 2441 0 
L 2441 556 
z
" transform="scale(0.015625)"/>
      <path id="DejaVuSans-43e" d="M 1959 3097 
Q 1497 3097 1228 2736 
Q 959 2375 959 1747 
Q 959 1119 1226 758 
Q 1494 397 1959 397 
Q 2419 397 2687 759 
Q 2956 1122 2956 1747 
Q 2956 2369 2687 2733 
Q 2419 3097 1959 3097 
z
M 1959 3584 
Q 2709 3584 3137 3096 
Q 3566 2609 3566 1747 
Q 3566 888 3137 398 
Q 2709 -91 1959 -91 
Q 1206 -91 779 398 
Q 353 888 353 1747 
Q 353 2609 779 3096 
Q 1206 3584 1959 3584 
z
" transform="scale(0.015625)"/>
      <path id="DejaVuSans-440" d="M 1159 525 
L 1159 -1331 
L 581 -1331 
L 581 3500 
L 1159 3500 
L 1159 2969 
Q 1341 3281 1617 3432 
Q 1894 3584 2278 3584 
Q 2916 3584 3314 3078 
Q 3713 2572 3713 1747 
Q 3713 922 3314 415 
Q 2916 -91 2278 -91 
Q 1894 -91 1617 61 
Q 1341 213 1159 525 
z
M 3116 1747 
Q 3116 2381 2855 2742 
Q 2594 3103 2138 3103 
Q 1681 3103 1420 2742 
Q 1159 2381 1159 1747 
Q 1159 1113 1420 752 
Q 1681 391 2138 391 
Q 2594 391 2855 752 
Q 3116 1113 3116 1747 
z
" transform="scale(0.015625)"/>
      <path id="DejaVuSans-43c" d="M 581 3500 
L 1422 3500 
L 2416 1156 
L 3413 3500 
L 4247 3500 
L 4247 0 
L 3669 0 
L 3669 2950 
L 2703 672 
L 2128 672 
L 1159 2950 
L 1159 0 
L 581 0 
L 581 3500 
z
" transform="scale(0.015625)"/>
      <path id="DejaVuSans-430" d="M 2194 1759 
Q 1497 1759 1228 1600 
Q 959 1441 959 1056 
Q 959 750 1161 570 
Q 1363 391 1709 391 
Q 2188 391 2477 730 
Q 2766 1069 2766 1631 
L 2766 1759 
L 2194 1759 
z
M 3341 1997 
L 3341 0 
L 2766 0 
L 2766 531 
Q 2569 213 2275 61 
Q 1981 -91 1556 -91 
Q 1019 -91 701 211 
Q 384 513 384 1019 
Q 384 1609 779 1909 
Q 1175 2209 1959 2209 
L 2766 2209 
L 2766 2266 
Q 2766 2663 2505 2880 
Q 2244 3097 1772 3097 
Q 1472 3097 1187 3025 
Q 903 2953 641 2809 
L 641 3341 
Q 956 3463 1253 3523 
Q 1550 3584 1831 3584 
Q 2591 3584 2966 3190 
Q 3341 2797 3341 1997 
z
" transform="scale(0.015625)"/>
      <path id="DejaVuSans-20" transform="scale(0.015625)"/>
      <path id="DejaVuSans-2192" d="M 5050 2147 
L 5050 1866 
L 3822 638 
L 3447 1013 
L 4175 1741 
L 366 1741 
L 366 2272 
L 4175 2272 
L 3447 3000 
L 3822 3375 
L 5050 2147 
z
" transform="scale(0.015625)"/>
      <path id="DejaVuSans-41f" d="M 4184 4666 
L 4184 0 
L 3553 0 
L 3553 4134 
L 1259 4134 
L 1259 0 
L 628 0 
L 628 4666 
L 4184 4666 
z
" transform="scale(0.015625)"/>
      <path id="DejaVuSans-43b" d="M 238 0 
L 238 478 
Q 806 566 981 959 
Q 1194 1513 1194 2928 
L 1194 3500 
L 3559 3500 
L 3559 0 
L 2984 0 
L 2984 3041 
L 1769 3041 
L 1769 2694 
Q 1769 1344 1494 738 
Q 1200 91 238 0 
z
" transform="scale(0.015625)"/>
      <path id="DejaVuSans-435" d="M 3597 1894 
L 3597 1613 
L 953 1613 
Q 991 1019 1311 708 
Q 1631 397 2203 397 
Q 2534 397 2845 478 
Q 3156 559 3463 722 
L 3463 178 
Q 3153 47 2828 -22 
Q 2503 -91 2169 -91 
Q 1331 -91 842 396 
Q 353 884 353 1716 
Q 353 2575 817 3079 
Q 1281 3584 2069 3584 
Q 2775 3584 3186 3129 
Q 3597 2675 3597 1894 
z
M 3022 2063 
Q 3016 2534 2758 2815 
Q 2500 3097 2075 3097 
Q 1594 3097 1305 2825 
Q 1016 2553 972 2059 
L 3022 2063 
z
" transform="scale(0.015625)"/>
      <path id="DejaVuSans-421" d="M 4122 4306 
L 4122 3641 
Q 3803 3938 3442 4084 
Q 3081 4231 2675 4231 
Q 1875 4231 1450 3742 
Q 1025 3253 1025 2328 
Q 1025 1406 1450 917 
Q 1875 428 2675 428 
Q 3081 428 3442 575 
Q 3803 722 4122 1019 
L 4122 359 
Q 3791 134 3420 21 
Q 3050 -91 2638 -91 
Q 1578 -91 968 557 
Q 359 1206 359 2328 
Q 359 3453 968 4101 
Q 1578 4750 2638 4750 
Q 3056 4750 3426 4639 
Q 3797 4528 4122 4306 
z
" transform="scale(0.015625)"/>
      <path id="DejaVuSans-432" d="M 1156 1613 
L 1156 459 
L 1975 459 
Q 2369 459 2575 607 
Q 2781 756 2781 1038 
Q 2781 1319 2575 1466 
Q 2369 1613 1975 1613 
L 1156 1613 
z
M 1156 3041 
L 1156 2072 
L 1913 2072 
Q 2238 2072 2444 2201 
Q 2650 2331 2650 2563 
Q 2650 2794 2444 2917 
Q 2238 3041 1913 3041 
L 1156 3041 
z
M 581 3500 
L 1950 3500 
Q 2566 3500 2897 3275 
Q 3228 3050 3228 2634 
Q 3228 2313 3059 2123 
Q 2891 1934 2559 1888 
Q 2956 1813 3175 1575 
Q 3394 1338 3394 981 
Q 3394 513 3033 256 
Q 2672 0 2003 0 
L 581 0 
L 581 3500 
z
" transform="scale(0.015625)"/>
      <path id="DejaVuSans-442" d="M 188 3500 
L 3541 3500 
L 3541 3041 
L 2147 3041 
L 2147 0 
L 1581 0 
L 1581 3041 
L 188 3041 
L 188 3500 
z
" transform="scale(0.015625)"/>
     </defs>
     <use xlink:href="#DejaVuSans-424"/>
     <use xlink:href="#DejaVuSans-43e" x="86.083984"/>
     <use xlink:href="#DejaVuSans-440" x="147.265625"/>
     <use xlink:href="#DejaVuSans-43c" x="210.742188"/>
     <use xlink:href="#DejaVuSans-430" x="286.181641"/>
     <use xlink:href="#DejaVuSans-20" x="347.460938"/>
     <use xlink:href="#DejaVuSans-2192" x="379.248047"/>
     <use xlink:href="#DejaVuSans-20" x="463.037109"/>
     <use xlink:href="#DejaVuSans-41f" x="494.824219"/>
     <use xlink:href="#DejaVuSans-43e" x="570.019531"/>
     <use xlink:href="#DejaVuSans-43b" x="631.201172"/>
     <use xlink:href="#DejaVuSans-435" x="695.117188"/>
     <use xlink:href="#DejaVuSans-20" x="756.640625"/>
     <use xlink:href="#DejaVuSans-2192" x="788.427734"/>
     <use xlink:href="#DejaVuSans-20" x="872.216797"/>
     <use xlink:href="#DejaVuSans-421" x="904.003906"/>
     <use xlink:href="#DejaVuSans-432" x="973.828125"/>
     <use xlink:href="#DejaVuSans-435" x="1032.763672"/>
     <use xlink:href="#DejaVuSans-442" x="1094.287109"/>
    </g>
   </g>
   <g id="text_3">
    <!-- ФОРМА -->
    <g style="fill: #facc15" transform="translate(41.112 487.127125) scale(0.14 -0.14)">
     <defs>
      <path id="DejaVuSans-Bold-424" d="M 1563 2378 
Q 1563 1909 1805 1700 
Q 2047 1491 2572 1447 
L 2572 3313 
Q 2047 3269 1805 3058 
Q 1563 2847 1563 2378 
z
M 4784 2378 
Q 4784 2847 4542 3058 
Q 4300 3269 3775 3313 
L 3775 1447 
Q 4300 1491 4542 1700 
Q 4784 1909 4784 2378 
z
M 2572 4666 
L 3775 4666 
L 3775 4203 
Q 4922 4109 5473 3681 
Q 6025 3253 6025 2378 
Q 6025 1503 5473 1076 
Q 4922 650 3775 556 
L 3775 0 
L 2572 0 
L 2572 556 
Q 1425 650 872 1076 
Q 319 1503 319 2378 
Q 319 3253 872 3681 
Q 1425 4109 2572 4203 
L 2572 4666 
z
" transform="scale(0.015625)"/>
      <path id="DejaVuSans-Bold-41e" d="M 2719 3878 
Q 2169 3878 1866 3472 
Q 1563 3066 1563 2328 
Q 1563 1594 1866 1187 
Q 2169 781 2719 781 
Q 3272 781 3575 1187 
Q 3878 1594 3878 2328 
Q 3878 3066 3575 3472 
Q 3272 3878 2719 3878 
z
M 2719 4750 
Q 3844 4750 4481 4106 
Q 5119 3463 5119 2328 
Q 5119 1197 4481 553 
Q 3844 -91 2719 -91 
Q 1597 -91 958 553 
Q 319 1197 319 2328 
Q 319 3463 958 4106 
Q 1597 4750 2719 4750 
z
" transform="scale(0.015625)"/>
      <path id="DejaVuSans-Bold-420" d="M 588 4666 
L 2584 4666 
Q 3475 4666 3951 4270 
Q 4428 3875 4428 3144 
Q 4428 2409 3951 2014 
Q 3475 1619 2584 1619 
L 1791 1619 
L 1791 0 
L 588 0 
L 588 4666 
z
M 1791 3794 
L 1791 2491 
L 2456 2491 
Q 2806 2491 2997 2661 
Q 3188 2831 3188 3144 
Q 3188 3456 2997 3625 
Q 2806 3794 2456 3794 
L 1791 3794 
z
" transform="scale(0.015625)"/>
      <path id="DejaVuSans-Bold-41c" d="M 588 4666 
L 2119 4666 
L 3181 2169 
L 4250 4666 
L 5778 4666 
L 5778 0 
L 4641 0 
L 4641 3413 
L 3566 897 
L 2803 897 
L 1728 3413 
L 1728 0 
L 588 0 
L 588 4666 
z
" transform="scale(0.015625)"/>
     </defs>
     <use xlink:href="#DejaVuSans-Bold-424"/>
     <use xlink:href="#DejaVuSans-Bold-41e" x="99.169922"/>
     <use xlink:href="#DejaVuSans-Bold-420" x="184.179688"/>
     <use xlink:href="#DejaVuSans-Bold-41c" x="257.470703"/>
     <use xlink:href="#DejaVuSans-Bold-410" x="356.982422"/>
    </g>
   </g>
   <g id="text_4">
    <!-- ПОЛЕ -->
    <g style="fill: #93c5fd" transform="translate(41.112 311.735125) scale(0.14 -0.14)">
     <defs>
      <path id="DejaVuSans-Bold-41f" d="M 4769 4666 
L 4769 0 
L 3566 0 
L 3566 3756 
L 1791 3756 
L 1791 0 
L 588 0 
L 588 4666 
L 4769 4666 
z
" transform="scale(0.015625)"/>
      <path id="DejaVuSans-Bold-41b" d="M 294 0 
L 294 909 
Q 1088 997 1247 1514 
Q 1406 2031 1406 3784 
L 1406 4666 
L 4728 4666 
L 4728 0 
L 3525 0 
L 3525 3756 
L 2609 3756 
L 2609 3472 
Q 2609 1759 2306 967 
Q 2003 175 294 0 
z
" transform="scale(0.015625)"/>
      <path id="DejaVuSans-Bold-415" d="M 588 4666 
L 3834 4666 
L 3834 3756 
L 1791 3756 
L 1791 2888 
L 3713 2888 
L 3713 1978 
L 1791 1978 
L 1791 909 
L 3903 909 
L 3903 0 
L 588 0 
L 588 4666 
z
" transform="scale(0.015625)"/>
     </defs>
     <use xlink:href="#DejaVuSans-Bold-41f"/>
     <use xlink:href="#DejaVuSans-Bold-41e" x="83.691406"/>
     <use xlink:href="#DejaVuSans-Bold-41b" x="168.701172"/>
     <use xlink:href="#DejaVuSans-Bold-415" x="251.757812"/>
    </g>
   </g>
   <g id="text_5">
    <!-- СВЕТ -->
    <g style="fill: #a78bfa" transform="translate(41.112 136.343125) scale(0.14 -0.14)">
     <defs>
      <path id="DejaVuSans-Bold-421" d="M 4288 256 
Q 3956 84 3597 -3 
Q 3238 -91 2847 -91 
Q 1681 -91 1000 561 
Q 319 1213 319 2328 
Q 319 3447 1000 4098 
Q 1681 4750 2847 4750 
Q 3238 4750 3597 4662 
Q 3956 4575 4288 4403 
L 4288 3438 
Q 3953 3666 3628 3772 
Q 3303 3878 2944 3878 
Q 2300 3878 1931 3465 
Q 1563 3053 1563 2328 
Q 1563 1606 1931 1193 
Q 2300 781 2944 781 
Q 3303 781 3628 887 
Q 3953 994 4288 1222 
L 4288 256 
z
" transform="scale(0.015625)"/>
      <path id="DejaVuSans-Bold-412" d="M 2456 2859 
Q 2741 2859 2887 2984 
Q 3034 3109 3034 3353 
Q 3034 3594 2887 3720 
Q 2741 3847 2456 3847 
L 1791 3847 
L 1791 2859 
L 2456 2859 
z
M 2497 819 
Q 2859 819 3042 972 
Q 3225 1125 3225 1434 
Q 3225 1738 3044 1889 
Q 2863 2041 2497 2041 
L 1791 2041 
L 1791 819 
L 2497 819 
z
M 3616 2497 
Q 4003 2384 4215 2081 
Q 4428 1778 4428 1338 
Q 4428 663 3972 331 
Q 3516 0 2584 0 
L 588 0 
L 588 4666 
L 2394 4666 
Q 3366 4666 3802 4372 
Q 4238 4078 4238 3431 
Q 4238 3091 4078 2852 
Q 3919 2613 3616 2497 
z
" transform="scale(0.015625)"/>
      <path id="DejaVuSans-Bold-422" d="M 31 4666 
L 4331 4666 
L 4331 3756 
L 2784 3756 
L 2784 0 
L 1581 0 
L 1581 3756 
L 31 3756 
L 31 4666 
z
" transform="scale(0.015625)"/>
     </defs>
     <use xlink:href="#DejaVuSans-Bold-421"/>
     <use xlink:href="#DejaVuSans-Bold-412" x="73.388672"/>
     <use xlink:href="#DejaVuSans-Bold-415" x="149.609375"/>
     <use xlink:href="#DejaVuSans-Bold-422" x="217.919922"/>
    </g>
   </g>
   <g id="PathCollection_1">
    <defs>
     <path id="m677d42d012" d="M -5.477226 5.477226 
L 5.477226 -5.477226 
M -5.477226 -5.477226 
L 5.477226 5.477226 
" style="stroke: #facc15; stroke-width: 1.5"/>
    </defs>
    <g clip-path="url(#p37fb936896)">
     <use xlink:href="#m677d42d012" x="75.024" y="483.264" style="fill: #facc15; stroke: #facc15; stroke-width: 1.5"/>
    </g>
   </g>
   <g id="text_6">
    <!-- 1 -->
    <g style="fill: #facc15" transform="translate(72.160875 515.158594) scale(0.09 -0.09)">
     <defs>
      <path id="DejaVuSans-31" d="M 794 531 
L 1825 531 
L 1825 4091 
L 703 3866 
L 703 4441 
L 1819 4666 
L 2450 4666 
L 2450 531 
L 3481 531 
L 3481 0 
L 794 0 
L 794 531 
z
" transform="scale(0.015625)"/>
     </defs>
     <use xlink:href="#DejaVuSans-31"/>
    </g>
   </g>
   <g id="text_7">
    <!-- Азъ -->
    <g style="fill: #facc15" transform="translate(65.412281 459.260312) scale(0.1 -0.1)">
     <defs>
      <path id="DejaVuSans-410" d="M 2188 4044 
L 1331 1722 
L 3047 1722 
L 2188 4044 
z
M 1831 4666 
L 2547 4666 
L 4325 0 
L 3669 0 
L 3244 1197 
L 1141 1197 
L 716 0 
L 50 0 
L 1831 4666 
z
" transform="scale(0.015625)"/>
      <path id="DejaVuSans-437" d="M 2206 1888 
Q 2594 1813 2809 1584 
Q 3025 1356 3025 1019 
Q 3025 478 2622 193 
Q 2219 -91 1475 -91 
Q 1225 -91 961 -47 
Q 697 -3 416 84 
L 416 619 
Q 638 503 903 445 
Q 1169 388 1459 388 
Q 1931 388 2195 563 
Q 2459 738 2459 1019 
Q 2459 1294 2225 1461 
Q 1991 1628 1563 1628 
L 1100 1628 
L 1100 2103 
L 1584 2103 
Q 1947 2103 2158 2242 
Q 2369 2381 2369 2600 
Q 2369 2800 2151 2944 
Q 1934 3088 1563 3088 
Q 1341 3088 1089 3047 
Q 838 3006 534 2916 
L 534 3438 
Q 841 3513 1106 3550 
Q 1372 3588 1609 3588 
Q 2222 3588 2576 3342 
Q 2931 3097 2931 2656 
Q 2931 2366 2743 2164 
Q 2556 1963 2206 1888 
z
" transform="scale(0.015625)"/>
      <path id="DejaVuSans-44a" d="M 2753 2072 
Q 3422 2072 3783 1817 
Q 4144 1563 4144 1038 
Q 4144 513 3783 256 
Q 3422 0 2753 0 
L 1328 0 
L 1328 3041 
L 194 3041 
L 194 3500 
L 1906 3500 
L 1906 2072 
L 2753 2072 
z
M 2728 1613 
L 1906 1613 
L 1906 459 
L 2728 459 
Q 3122 459 3326 607 
Q 3531 756 3531 1038 
Q 3531 1319 3326 1466 
Q 3122 1613 2728 1613 
z
" transform="scale(0.015625)"/>
     </defs>
     <use xlink:href="#DejaVuSans-410"/>
     <use xlink:href="#DejaVuSans-437" x="68.408203"/>
     <use xlink:href="#DejaVuSans-44a" x="121.582031"/>
    </g>
   </g>
   <g id="PathCollection_2">
    <g clip-path="url(#p37fb936896)">
     <use xlink:href="#m677d42d012" x="127.379368" y="483.264" style="fill: #facc15; stroke: #facc15; stroke-width: 1.5"/>
    </g>
   </g>
   <g id="text_8">
    <!-- 2 -->
    <g style="fill: #facc15" transform="translate(124.516243 515.158594) scale(0.09 -0.09)">
     <defs>
      <path id="DejaVuSans-32" d="M 1228 531 
L 3431 531 
L 3431 0 
L 469 0 
L 469 531 
Q 828 903 1448 1529 
Q 2069 2156 2228 2338 
Q 2531 2678 2651 2914 
Q 2772 3150 2772 3378 
Q 2772 3750 2511 3984 
Q 2250 4219 1831 4219 
Q 1534 4219 1204 4116 
Q 875 4013 500 3803 
L 500 4441 
Q 881 4594 1212 4672 
Q 1544 4750 1819 4750 
Q 2544 4750 2975 4387 
Q 3406 4025 3406 3419 
Q 3406 3131 3298 2873 
Q 3191 2616 2906 2266 
Q 2828 2175 2409 1742 
Q 1991 1309 1228 531 
z
" transform="scale(0.015625)"/>
     </defs>
     <use xlink:href="#DejaVuSans-32"/>
    </g>
   </g>
   <g id="text_9">
    <!-- Буки -->
    <g style="fill: #facc15" transform="translate(114.719993 459.260312) scale(0.1 -0.1)">
     <defs>
      <path id="DejaVuSans-411" d="M 3272 1372 
Q 3272 1806 3026 2017 
Q 2781 2228 2272 2228 
L 1259 2228 
L 1259 519 
L 2272 519 
Q 2781 519 3026 730 
Q 3272 941 3272 1372 
z
M 3609 4666 
L 3609 4147 
L 1259 4147 
L 1259 2747 
L 2303 2747 
Q 3088 2747 3513 2406 
Q 3938 2066 3938 1372 
Q 3938 681 3527 340 
Q 3116 0 2303 0 
L 628 0 
L 628 4666 
L 3609 4666 
z
" transform="scale(0.015625)"/>
      <path id="DejaVuSans-443" d="M 2059 -325 
Q 1816 -950 1584 -1140 
Q 1353 -1331 966 -1331 
L 506 -1331 
L 506 -850 
L 844 -850 
Q 1081 -850 1212 -737 
Q 1344 -625 1503 -206 
L 1606 56 
L 191 3500 
L 800 3500 
L 1894 763 
L 2988 3500 
L 3597 3500 
L 2059 -325 
z
" transform="scale(0.015625)"/>
      <path id="DejaVuSans-43a" d="M 581 3500 
L 1153 3500 
L 1153 1856 
L 2775 3500 
L 3481 3500 
L 2144 2147 
L 3653 0 
L 3009 0 
L 1769 1766 
L 1153 1141 
L 1153 0 
L 581 0 
L 581 3500 
z
" transform="scale(0.015625)"/>
      <path id="DejaVuSans-438" d="M 3578 3500 
L 3578 0 
L 3006 0 
L 3006 2809 
L 1319 0 
L 581 0 
L 581 3500 
L 1153 3500 
L 1153 697 
L 2838 3500 
L 3578 3500 
z
" transform="scale(0.015625)"/>
     </defs>
     <use xlink:href="#DejaVuSans-411"/>
     <use xlink:href="#DejaVuSans-443" x="68.603516"/>
     <use xlink:href="#DejaVuSans-43a" x="127.783203"/>
     <use xlink:href="#DejaVuSans-438" x="188.183594"/>
    </g>
   </g>
   <g id="PathCollection_3">
    <g clip-path="url(#p37fb936896)">
     <use xlink:href="#m677d42d012" x="179.734737" y="483.264" style="fill: #facc15; stroke: #facc15; stroke-width: 1.5"/>
    </g>
   </g>
   <g id="text_10">
    <!-- 3 -->
    <g style="fill: #facc15" transform="translate(176.871612 515.158594) scale(0.09 -0.09)">
     <defs>
      <path id="DejaVuSans-33" d="M 2597 2516 
Q 3050 2419 3304 2112 
Q 3559 1806 3559 1356 
Q 3559 666 3084 287 
Q 2609 -91 1734 -91 
Q 1441 -91 1130 -33 
Q 819 25 488 141 
L 488 750 
Q 750 597 1062 519 
Q 1375 441 1716 441 
Q 2309 441 2620 675 
Q 2931 909 2931 1356 
Q 2931 1769 2642 2001 
Q 2353 2234 1838 2234 
L 1294 2234 
L 1294 2753 
L 1863 2753 
Q 2328 2753 2575 2939 
Q 2822 3125 2822 3475 
Q 2822 3834 2567 4026 
Q 2313 4219 1838 4219 
Q 1578 4219 1281 4162 
Q 984 4106 628 3988 
L 628 4550 
Q 988 4650 1302 4700 
Q 1616 4750 1894 4750 
Q 2613 4750 3031 4423 
Q 3450 4097 3450 3541 
Q 3450 3153 3228 2886 
Q 3006 2619 2597 2516 
z
" transform="scale(0.015625)"/>
     </defs>
     <use xlink:href="#DejaVuSans-33"/>
    </g>
   </g>
   <g id="text_11">
    <!-- Веди -->
    <g style="fill: #facc15" transform="translate(166.521456 459.260312) scale(0.1 -0.1)">
     <defs>
      <path id="DejaVuSans-412" d="M 1259 2228 
L 1259 519 
L 2272 519 
Q 2781 519 3026 730 
Q 3272 941 3272 1375 
Q 3272 1813 3026 2020 
Q 2781 2228 2272 2228 
L 1259 2228 
z
M 1259 4147 
L 1259 2741 
L 2194 2741 
Q 2656 2741 2882 2914 
Q 3109 3088 3109 3444 
Q 3109 3797 2882 3972 
Q 2656 4147 2194 4147 
L 1259 4147 
z
M 628 4666 
L 2241 4666 
Q 2963 4666 3353 4366 
Q 3744 4066 3744 3513 
Q 3744 3084 3544 2831 
Q 3344 2578 2956 2516 
Q 3422 2416 3680 2098 
Q 3938 1781 3938 1306 
Q 3938 681 3513 340 
Q 3088 0 2303 0 
L 628 0 
L 628 4666 
z
" transform="scale(0.015625)"/>
      <path id="DejaVuSans-434" d="M 1384 459 
L 3053 459 
L 3053 3041 
L 1844 3041 
L 1844 2603 
Q 1844 1316 1475 628 
L 1384 459 
z
M 550 459 
Q 834 584 959 850 
Q 1266 1509 1266 2838 
L 1266 3500 
L 3631 3500 
L 3631 459 
L 4091 459 
L 4091 -884 
L 3631 -884 
L 3631 0 
L 794 0 
L 794 -884 
L 334 -884 
L 334 459 
L 550 459 
z
" transform="scale(0.015625)"/>
     </defs>
     <use xlink:href="#DejaVuSans-412"/>
     <use xlink:href="#DejaVuSans-435" x="68.603516"/>
     <use xlink:href="#DejaVuSans-434" x="130.126953"/>
     <use xlink:href="#DejaVuSans-438" x="199.267578"/>
    </g>
   </g>
   <g id="PathCollection_4">
    <g clip-path="url(#p37fb936896)">
     <use xlink:href="#m677d42d012" x="232.090105" y="483.264" style="fill: #facc15; stroke: #facc15; stroke-width: 1.5"/>
    </g>
   </g>
   <g id="text_12">
    <!-- 4 -->
    <g style="fill: #facc15" transform="translate(229.22698 515.158594) scale(0.09 -0.09)">
     <defs>
      <path id="DejaVuSans-34" d="M 2419 4116 
L 825 1625 
L 2419 1625 
L 2419 4116 
z
M 2253 4666 
L 3047 4666 
L 3047 1625 
L 3713 1625 
L 3713 1100 
L 3047 1100 
L 3047 0 
L 2419 0 
L 2419 1100 
L 313 1100 
L 313 1709 
L 2253 4666 
z
" transform="scale(0.015625)"/>
     </defs>
     <use xlink:href="#DejaVuSans-34"/>
    </g>
   </g>
   <g id="text_13">
    <!-- Глаголь -->
    <g style="fill: #facc15" transform="translate(210.951043 459.260312) scale(0.1 -0.1)">
     <defs>
      <path id="DejaVuSans-413" d="M 628 0 
L 628 4666 
L 3531 4666 
L 3531 4134 
L 1259 4134 
L 1259 0 
L 628 0 
z
" transform="scale(0.015625)"/>
      <path id="DejaVuSans-433" d="M 581 0 
L 581 3500 
L 3050 3500 
L 3050 3041 
L 1159 3041 
L 1159 0 
L 581 0 
z
" transform="scale(0.015625)"/>
      <path id="DejaVuSans-44c" d="M 2781 1038 
Q 2781 1319 2576 1466 
Q 2372 1613 1978 1613 
L 1159 1613 
L 1159 459 
L 1978 459 
Q 2372 459 2576 607 
Q 2781 756 2781 1038 
z
M 581 3500 
L 1159 3500 
L 1159 2072 
L 2003 2072 
Q 2672 2072 3033 1817 
Q 3394 1563 3394 1038 
Q 3394 513 3033 256 
Q 2672 0 2003 0 
L 581 0 
L 581 3500 
z
" transform="scale(0.015625)"/>
     </defs>
     <use xlink:href="#DejaVuSans-413"/>
     <use xlink:href="#DejaVuSans-43b" x="60.986328"/>
     <use xlink:href="#DejaVuSans-430" x="124.902344"/>
     <use xlink:href="#DejaVuSans-433" x="186.181641"/>
     <use xlink:href="#DejaVuSans-43e" x="238.720703"/>
     <use xlink:href="#DejaVuSans-43b" x="299.902344"/>
     <use xlink:href="#DejaVuSans-44c" x="363.818359"/>
    </g>
   </g>
   <g id="PathCollection_5">
    <g clip-path="url(#p37fb936896)">
     <use xlink:href="#m677d42d012" x="284.445474" y="483.264" style="fill: #facc15; stroke: #facc15; stroke-width: 1.5"/>
    </g>
   </g>
   <g id="text_14">
    <!-- 5 -->
    <g style="fill: #facc15" transform="translate(281.582349 515.158594) scale(0.09 -0.09)">
     <defs>
      <path id="DejaVuSans-35" d="M 691 4666 
L 3169 4666 
L 3169 4134 
L 1269 4134 
L 1269 2991 
Q 1406 3038 1543 3061 
Q 1681 3084 1819 3084 
Q 2600 3084 3056 2656 
Q 3513 2228 3513 1497 
Q 3513 744 3044 326 
Q 2575 -91 1722 -91 
Q 1428 -91 1123 -41 
Q 819 9 494 109 
L 494 744 
Q 775 591 1075 516 
Q 1375 441 1709 441 
Q 2250 441 2565 725 
Q 2881 1009 2881 1497 
Q 2881 1984 2565 2268 
Q 2250 2553 1709 2553 
Q 1456 2553 1204 2497 
Q 953 2441 691 2322 
L 691 4666 
z
" transform="scale(0.015625)"/>
     </defs>
     <use xlink:href="#DejaVuSans-35"/>
    </g>
   </g>
   <g id="text_15">
    <!-- Добро -->
    <g style="fill: #facc15" transform="translate(268.162661 459.260312) scale(0.1 -0.1)">
     <defs>
      <path id="DejaVuSans-414" d="M 1459 531 
L 3522 531 
L 3522 4134 
L 2006 4134 
L 2006 3472 
Q 2006 1913 1656 878 
Q 1584 666 1459 531 
z
M 538 531 
Q 956 728 1075 1103 
Q 1378 2066 1378 3784 
L 1378 4666 
L 4153 4666 
L 4153 531 
L 4684 531 
L 4684 -1003 
L 4153 -1003 
L 4153 0 
L 847 0 
L 847 -1003 
L 316 -1003 
L 316 531 
L 538 531 
z
" transform="scale(0.015625)"/>
      <path id="DejaVuSans-431" d="M 1991 3584 
Q 2741 3584 3169 3096 
Q 3597 2609 3597 1747 
Q 3597 888 3169 398 
Q 2741 -91 1991 -91 
Q 1238 -91 822 384 
Q 406 859 384 1747 
L 366 2463 
Q 350 2834 350 2963 
Q 350 3463 531 3831 
Q 816 4409 1308 4659 
Q 1800 4909 2625 4916 
Q 3006 4919 3175 4972 
L 3334 4516 
Q 3181 4453 3041 4450 
L 2259 4397 
Q 1866 4369 1628 4231 
Q 1006 3866 947 3388 
L 925 3213 
Q 1331 3584 1991 3584 
z
M 1991 3097 
Q 1528 3097 1259 2736 
Q 991 2375 991 1747 
Q 991 1119 1258 758 
Q 1525 397 1991 397 
Q 2450 397 2719 759 
Q 2988 1122 2988 1747 
Q 2988 2369 2719 2733 
Q 2450 3097 1991 3097 
z
" transform="scale(0.015625)"/>
     </defs>
     <use xlink:href="#DejaVuSans-414"/>
     <use xlink:href="#DejaVuSans-43e" x="78.125"/>
     <use xlink:href="#DejaVuSans-431" x="139.306641"/>
     <use xlink:href="#DejaVuSans-440" x="200.976562"/>
     <use xlink:href="#DejaVuSans-43e" x="264.453125"/>
    </g>
   </g>
   <g id="PathCollection_6">
    <g clip-path="url(#p37fb936896)">
     <use xlink:href="#m677d42d012" x="336.800842" y="483.264" style="fill: #facc15; stroke: #facc15; stroke-width: 1.5"/>
    </g>
   </g>
   <g id="text_16">
    <!-- 6 -->
    <g style="fill: #facc15" transform="translate(333.937717 515.158594) scale(0.09 -0.09)">
     <defs>
      <path id="DejaVuSans-36" d="M 2113 2584 
Q 1688 2584 1439 2293 
Q 1191 2003 1191 1497 
Q 1191 994 1439 701 
Q 1688 409 2113 409 
Q 2538 409 2786 701 
Q 3034 994 3034 1497 
Q 3034 2003 2786 2293 
Q 2538 2584 2113 2584 
z
M 3366 4563 
L 3366 3988 
Q 3128 4100 2886 4159 
Q 2644 4219 2406 4219 
Q 1781 4219 1451 3797 
Q 1122 3375 1075 2522 
Q 1259 2794 1537 2939 
Q 1816 3084 2150 3084 
Q 2853 3084 3261 2657 
Q 3669 2231 3669 1497 
Q 3669 778 3244 343 
Q 2819 -91 2113 -91 
Q 1303 -91 875 529 
Q 447 1150 447 2328 
Q 447 3434 972 4092 
Q 1497 4750 2381 4750 
Q 2619 4750 2861 4703 
Q 3103 4656 3366 4563 
z
" transform="scale(0.015625)"/>
     </defs>
     <use xlink:href="#DejaVuSans-36"/>
    </g>
   </g>
   <g id="text_17">
    <!-- Есть -->
    <g style="fill: #facc15" transform="translate(325.032873 459.260312) scale(0.1 -0.1)">
     <defs>
      <path id="DejaVuSans-415" d="M 628 4666 
L 3578 4666 
L 3578 4134 
L 1259 4134 
L 1259 2753 
L 3481 2753 
L 3481 2222 
L 1259 2222 
L 1259 531 
L 3634 531 
L 3634 0 
L 628 0 
L 628 4666 
z
" transform="scale(0.015625)"/>
      <path id="DejaVuSans-441" d="M 3122 3366 
L 3122 2828 
Q 2878 2963 2633 3030 
Q 2388 3097 2138 3097 
Q 1578 3097 1268 2742 
Q 959 2388 959 1747 
Q 959 1106 1268 751 
Q 1578 397 2138 397 
Q 2388 397 2633 464 
Q 2878 531 3122 666 
L 3122 134 
Q 2881 22 2623 -34 
Q 2366 -91 2075 -91 
Q 1284 -91 818 406 
Q 353 903 353 1747 
Q 353 2603 823 3093 
Q 1294 3584 2113 3584 
Q 2378 3584 2631 3529 
Q 2884 3475 3122 3366 
z
" transform="scale(0.015625)"/>
     </defs>
     <use xlink:href="#DejaVuSans-415"/>
     <use xlink:href="#DejaVuSans-441" x="63.183594"/>
     <use xlink:href="#DejaVuSans-442" x="118.164062"/>
     <use xlink:href="#DejaVuSans-44c" x="176.416016"/>
    </g>
   </g>
   <g id="PathCollection_7">
    <g clip-path="url(#p37fb936896)">
     <use xlink:href="#m677d42d012" x="389.156211" y="483.264" style="fill: #facc15; stroke: #facc15; stroke-width: 1.5"/>
    </g>
   </g>
   <g id="text_18">
    <!-- 7 -->
    <g style="fill: #facc15" transform="translate(386.293086 515.158594) scale(0.09 -0.09)">
     <defs>
      <path id="DejaVuSans-37" d="M 525 4666 
L 3525 4666 
L 3525 4397 
L 1831 0 
L 1172 0 
L 2766 4134 
L 525 4134 
L 525 4666 
z
" transform="scale(0.015625)"/>
     </defs>
     <use xlink:href="#DejaVuSans-37"/>
    </g>
   </g>
   <g id="text_19">
    <!-- Живѣтє -->
    <g style="fill: #facc15" transform="translate(368.557773 459.260312) scale(0.1 -0.1)">
     <defs>
      <path id="DejaVuSans-416" d="M 3131 4666 
L 3763 4666 
L 3763 2359 
L 5894 4666 
L 6659 4666 
L 4956 2825 
L 6769 0 
L 6109 0 
L 4569 2403 
L 3763 1531 
L 3763 0 
L 3131 0 
L 3131 1531 
L 2325 2403 
L 784 0 
L 125 0 
L 1938 2825 
L 234 4666 
L 1000 4666 
L 3131 2359 
L 3131 4666 
z
" transform="scale(0.015625)"/>
      <path id="DejaVuSans-463" d="M 3104 607 
Q 3309 756 3309 1037 
Q 3309 1319 3104 1466 
Q 2900 1613 2506 1613 
L 1688 1613 
L 1688 459 
L 2506 459 
Q 2900 459 3104 607 
z
M 1109 0 
L 1109 3041 
L 94 3041 
L 94 3500 
L 1109 3500 
L 1109 4863 
L 1688 4863 
L 1688 3500 
L 3016 3500 
L 3016 3041 
L 1688 3041 
L 1688 2072 
L 2531 2072 
Q 3200 2072 3561 1817 
Q 3922 1563 3922 1038 
Q 3922 513 3561 256 
Q 3200 0 2531 0 
L 1109 0 
z
" transform="scale(0.015625)"/>
      <path id="DejaVuSans-454" d="M 2113 3584 
Q 2631 3584 3122 3366 
L 3122 2828 
Q 2619 3097 2138 3097 
Q 1516 3097 1267 2748 
Q 1019 2400 981 2072 
L 2738 2072 
L 2738 1613 
L 963 1613 
Q 1022 931 1350 664 
Q 1678 397 2138 397 
Q 2628 397 3122 666 
L 3122 134 
Q 2663 -91 2072 -91 
Q 1269 -91 811 406 
Q 353 903 353 1747 
Q 353 2594 823 3089 
Q 1294 3584 2113 3584 
z
" transform="scale(0.015625)"/>
     </defs>
     <use xlink:href="#DejaVuSans-416"/>
     <use xlink:href="#DejaVuSans-438" x="107.714844"/>
     <use xlink:href="#DejaVuSans-432" x="172.705078"/>
     <use xlink:href="#DejaVuSans-463" x="231.640625"/>
     <use xlink:href="#DejaVuSans-442" x="298.828125"/>
     <use xlink:href="#DejaVuSans-454" x="357.080078"/>
    </g>
   </g>
   <g id="PathCollection_8">
    <g clip-path="url(#p37fb936896)">
     <use xlink:href="#m677d42d012" x="441.511579" y="483.264" style="fill: #facc15; stroke: #facc15; stroke-width: 1.5"/>
    </g>
   </g>
   <g id="text_20">
    <!-- 8 -->
    <g style="fill: #facc15" transform="translate(438.648454 515.158594) scale(0.09 -0.09)">
     <defs>
      <path id="DejaVuSans-38" d="M 2034 2216 
Q 1584 2216 1326 1975 
Q 1069 1734 1069 1313 
Q 1069 891 1326 650 
Q 1584 409 2034 409 
Q 2484 409 2743 651 
Q 3003 894 3003 1313 
Q 3003 1734 2745 1975 
Q 2488 2216 2034 2216 
z
M 1403 2484 
Q 997 2584 770 2862 
Q 544 3141 544 3541 
Q 544 4100 942 4425 
Q 1341 4750 2034 4750 
Q 2731 4750 3128 4425 
Q 3525 4100 3525 3541 
Q 3525 3141 3298 2862 
Q 3072 2584 2669 2484 
Q 3125 2378 3379 2068 
Q 3634 1759 3634 1313 
Q 3634 634 3220 271 
Q 2806 -91 2034 -91 
Q 1263 -91 848 271 
Q 434 634 434 1313 
Q 434 1759 690 2068 
Q 947 2378 1403 2484 
z
M 1172 3481 
Q 1172 3119 1398 2916 
Q 1625 2713 2034 2713 
Q 2441 2713 2670 2916 
Q 2900 3119 2900 3481 
Q 2900 3844 2670 4047 
Q 2441 4250 2034 4250 
Q 1625 4250 1398 4047 
Q 1172 3844 1172 3481 
z
" transform="scale(0.015625)"/>
     </defs>
     <use xlink:href="#DejaVuSans-38"/>
    </g>
   </g>
   <g id="text_21">
    <!-- Зело -->
    <g style="fill: #facc15" transform="translate(428.974079 459.260312) scale(0.1 -0.1)">
     <defs>
      <path id="DejaVuSans-417" d="M 1828 4750 
Q 2597 4750 3084 4423 
Q 3572 4097 3572 3541 
Q 3572 3153 3350 2886 
Q 3128 2619 2719 2516 
Q 3172 2419 3426 2112 
Q 3681 1806 3681 1356 
Q 3681 638 3126 273 
Q 2572 -91 1828 -91 
Q 1447 -91 1003 12 
Q 559 116 422 203 
L 422 853 
Q 900 575 1164 508 
Q 1428 441 1816 441 
Q 2403 441 2728 666 
Q 3053 891 3053 1356 
Q 3053 1769 2764 2001 
Q 2475 2234 1866 2234 
L 1228 2234 
L 1228 2753 
L 1891 2753 
Q 2450 2753 2697 2939 
Q 2944 3125 2944 3475 
Q 2944 3834 2689 4026 
Q 2434 4219 1816 4219 
Q 1397 4219 1253 4181 
Q 1109 4144 469 3903 
L 469 4519 
Q 822 4644 1190 4697 
Q 1559 4750 1828 4750 
z
" transform="scale(0.015625)"/>
     </defs>
     <use xlink:href="#DejaVuSans-417"/>
     <use xlink:href="#DejaVuSans-435" x="64.111328"/>
     <use xlink:href="#DejaVuSans-43b" x="125.634766"/>
     <use xlink:href="#DejaVuSans-43e" x="189.550781"/>
    </g>
   </g>
   <g id="PathCollection_9">
    <g clip-path="url(#p37fb936896)">
     <use xlink:href="#m677d42d012" x="493.866947" y="483.264" style="fill: #facc15; stroke: #facc15; stroke-width: 1.5"/>
    </g>
   </g>
   <g id="text_22">
    <!-- 9 -->
    <g style="fill: #facc15" transform="translate(491.003822 515.158594) scale(0.09 -0.09)">
     <defs>
      <path id="DejaVuSans-39" d="M 703 97 
L 703 672 
Q 941 559 1184 500 
Q 1428 441 1663 441 
Q 2288 441 2617 861 
Q 2947 1281 2994 2138 
Q 2813 1869 2534 1725 
Q 2256 1581 1919 1581 
Q 1219 1581 811 2004 
Q 403 2428 403 3163 
Q 403 3881 828 4315 
Q 1253 4750 1959 4750 
Q 2769 4750 3195 4129 
Q 3622 3509 3622 2328 
Q 3622 1225 3098 567 
Q 2575 -91 1691 -91 
Q 1453 -91 1209 -44 
Q 966 3 703 97 
z
M 1959 2075 
Q 2384 2075 2632 2365 
Q 2881 2656 2881 3163 
Q 2881 3666 2632 3958 
Q 2384 4250 1959 4250 
Q 1534 4250 1286 3958 
Q 1038 3666 1038 3163 
Q 1038 2656 1286 2365 
Q 1534 2075 1959 2075 
z
" transform="scale(0.015625)"/>
     </defs>
     <use xlink:href="#DejaVuSans-39"/>
    </g>
   </g>
   <g id="text_23">
    <!-- Земля -->
    <g style="fill: #facc15" transform="translate(477.609135 459.260312) scale(0.1 -0.1)">
     <defs>
      <path id="DejaVuSans-44f" d="M 1181 2491 
Q 1181 2231 1381 2084 
Q 1581 1938 1953 1938 
L 2728 1938 
L 2728 3041 
L 1953 3041 
Q 1581 3041 1381 2897 
Q 1181 2753 1181 2491 
z
M 363 0 
L 1431 1534 
Q 1069 1616 828 1830 
Q 588 2044 588 2491 
Q 588 2997 923 3248 
Q 1259 3500 1938 3500 
L 3306 3500 
L 3306 0 
L 2728 0 
L 2728 1478 
L 2013 1478 
L 981 0 
L 363 0 
z
" transform="scale(0.015625)"/>
     </defs>
     <use xlink:href="#DejaVuSans-417"/>
     <use xlink:href="#DejaVuSans-435" x="64.111328"/>
     <use xlink:href="#DejaVuSans-43c" x="125.634766"/>
     <use xlink:href="#DejaVuSans-43b" x="201.074219"/>
     <use xlink:href="#DejaVuSans-44f" x="264.990234"/>
    </g>
   </g>
   <g id="PathCollection_10">
    <g clip-path="url(#p37fb936896)">
     <use xlink:href="#m677d42d012" x="546.222316" y="483.264" style="fill: #facc15; stroke: #facc15; stroke-width: 1.5"/>
    </g>
   </g>
   <g id="text_24">
    <!-- 10 -->
    <g style="fill: #facc15" transform="translate(540.496066 515.158594) scale(0.09 -0.09)">
     <defs>
      <path id="DejaVuSans-30" d="M 2034 4250 
Q 1547 4250 1301 3770 
Q 1056 3291 1056 2328 
Q 1056 1369 1301 889 
Q 1547 409 2034 409 
Q 2525 409 2770 889 
Q 3016 1369 3016 2328 
Q 3016 3291 2770 3770 
Q 2525 4250 2034 4250 
z
M 2034 4750 
Q 2819 4750 3233 4129 
Q 3647 3509 3647 2328 
Q 3647 1150 3233 529 
Q 2819 -91 2034 -91 
Q 1250 -91 836 529 
Q 422 1150 422 2328 
Q 422 3509 836 4129 
Q 1250 4750 2034 4750 
z
" transform="scale(0.015625)"/>
     </defs>
     <use xlink:href="#DejaVuSans-31"/>
     <use xlink:href="#DejaVuSans-30" x="63.623047"/>
    </g>
   </g>
   <g id="text_25">
    <!-- Иже -->
    <g style="fill: #facc15" transform="translate(534.900441 459.260312) scale(0.1 -0.1)">
     <defs>
      <path id="DejaVuSans-418" d="M 4159 4666 
L 4159 0 
L 3547 0 
L 3547 3903 
L 1478 0 
L 628 0 
L 628 4666 
L 1241 4666 
L 1241 763 
L 3309 4666 
L 4159 4666 
z
" transform="scale(0.015625)"/>
      <path id="DejaVuSans-436" d="M 2597 3500 
L 3169 3500 
L 3169 1856 
L 4697 3500 
L 5366 3500 
L 4109 2153 
L 5547 0 
L 4931 0 
L 3753 1769 
L 3169 1141 
L 3169 0 
L 2597 0 
L 2597 1141 
L 2013 1769 
L 834 0 
L 219 0 
L 1656 2153 
L 400 3500 
L 1069 3500 
L 2597 1856 
L 2597 3500 
z
" transform="scale(0.015625)"/>
     </defs>
     <use xlink:href="#DejaVuSans-418"/>
     <use xlink:href="#DejaVuSans-436" x="74.804688"/>
     <use xlink:href="#DejaVuSans-435" x="164.892578"/>
    </g>
   </g>
   <g id="PathCollection_11">
    <g clip-path="url(#p37fb936896)">
     <use xlink:href="#m677d42d012" x="598.577684" y="483.264" style="fill: #facc15; stroke: #facc15; stroke-width: 1.5"/>
    </g>
   </g>
   <g id="text_26">
    <!-- 11 -->
    <g style="fill: #facc15" transform="translate(592.851434 515.158594) scale(0.09 -0.09)">
     <use xlink:href="#DejaVuSans-31"/>
     <use xlink:href="#DejaVuSans-31" x="63.623047"/>
    </g>
   </g>
   <g id="text_27">
    <!-- І -->
    <g style="fill: #facc15" transform="translate(597.102684 459.260312) scale(0.1 -0.1)">
     <defs>
      <path id="DejaVuSans-406" d="M 628 4666 
L 1259 4666 
L 1259 0 
L 628 0 
L 628 4666 
z
" transform="scale(0.015625)"/>
     </defs>
     <use xlink:href="#DejaVuSans-406"/>
    </g>
   </g>
   <g id="PathCollection_12">
    <g clip-path="url(#p37fb936896)">
     <use xlink:href="#m677d42d012" x="650.933053" y="483.264" style="fill: #facc15; stroke: #facc15; stroke-width: 1.5"/>
    </g>
   </g>
   <g id="text_28">
    <!-- 12 -->
    <g style="fill: #facc15" transform="translate(645.206803 515.158594) scale(0.09 -0.09)">
     <use xlink:href="#DejaVuSans-31"/>
     <use xlink:href="#DejaVuSans-32" x="63.623047"/>
    </g>
   </g>
   <g id="text_29">
    <!-- Како -->
    <g style="fill: #facc15" transform="translate(638.239303 459.260312) scale(0.1 -0.1)">
     <defs>
      <path id="DejaVuSans-41a" d="M 628 4666 
L 1259 4666 
L 1259 2359 
L 3516 4666 
L 4325 4666 
L 2522 2822 
L 4419 0 
L 3731 0 
L 2113 2403 
L 1259 1531 
L 1259 0 
L 628 0 
L 628 4666 
z
" transform="scale(0.015625)"/>
     </defs>
     <use xlink:href="#DejaVuSans-41a"/>
     <use xlink:href="#DejaVuSans-430" x="70.996094"/>
     <use xlink:href="#DejaVuSans-43a" x="132.275391"/>
     <use xlink:href="#DejaVuSans-43e" x="192.675781"/>
    </g>
   </g>
   <g id="PathCollection_13">
    <g clip-path="url(#p37fb936896)">
     <use xlink:href="#m677d42d012" x="703.288421" y="483.264" style="fill: #facc15; stroke: #facc15; stroke-width: 1.5"/>
    </g>
   </g>
   <g id="text_30">
    <!-- 13 -->
    <g style="fill: #facc15" transform="translate(697.562171 515.158594) scale(0.09 -0.09)">
     <use xlink:href="#DejaVuSans-31"/>
     <use xlink:href="#DejaVuSans-33" x="63.623047"/>
    </g>
   </g>
   <g id="text_31">
    <!-- Люди -->
    <g style="fill: #facc15" transform="translate(688.61264 459.260312) scale(0.1 -0.1)">
     <defs>
      <path id="DejaVuSans-41b" d="M 263 0 
L 263 531 
Q 941 678 1134 1191 
Q 1406 1997 1406 3872 
L 1406 4666 
L 4181 4666 
L 4181 0 
L 3550 0 
L 3550 4134 
L 2034 4134 
L 2034 3559 
Q 2034 1791 1716 966 
Q 1409 175 263 0 
z
" transform="scale(0.015625)"/>
      <path id="DejaVuSans-44e" d="M 3431 3097 
Q 2969 3097 2700 2736 
Q 2431 2375 2431 1747 
Q 2431 1119 2698 758 
Q 2966 397 3431 397 
Q 3891 397 4159 759 
Q 4428 1122 4428 1747 
Q 4428 2369 4159 2733 
Q 3891 3097 3431 3097 
z
M 1844 2103 
Q 1903 2697 2292 3140 
Q 2681 3584 3431 3584 
Q 4181 3584 4609 3096 
Q 5038 2609 5038 1747 
Q 5038 888 4609 398 
Q 4181 -91 3431 -91 
Q 2678 -91 2267 381 
Q 1856 853 1828 1628 
L 1178 1628 
L 1178 0 
L 603 0 
L 603 3500 
L 1178 3500 
L 1178 2103 
L 1844 2103 
z
" transform="scale(0.015625)"/>
     </defs>
     <use xlink:href="#DejaVuSans-41b"/>
     <use xlink:href="#DejaVuSans-44e" x="75.195312"/>
     <use xlink:href="#DejaVuSans-434" x="159.375"/>
     <use xlink:href="#DejaVuSans-438" x="228.515625"/>
    </g>
   </g>
   <g id="PathCollection_14">
    <g clip-path="url(#p37fb936896)">
     <use xlink:href="#m677d42d012" x="755.643789" y="483.264" style="fill: #facc15; stroke: #facc15; stroke-width: 1.5"/>
    </g>
   </g>
   <g id="text_32">
    <!-- 14 -->
    <g style="fill: #facc15" transform="translate(749.917539 515.158594) scale(0.09 -0.09)">
     <use xlink:href="#DejaVuSans-31"/>
     <use xlink:href="#DejaVuSans-34" x="63.623047"/>
    </g>
   </g>
   <g id="text_33">
    <!-- Мыслете -->
    <g style="fill: #facc15" transform="translate(732.371133 459.260312) scale(0.1 -0.1)">
     <defs>
      <path id="DejaVuSans-41c" d="M 628 4666 
L 1569 4666 
L 2759 1491 
L 3956 4666 
L 4897 4666 
L 4897 0 
L 4281 0 
L 4281 4097 
L 3078 897 
L 2444 897 
L 1241 4097 
L 1241 0 
L 628 0 
L 628 4666 
z
" transform="scale(0.015625)"/>
      <path id="DejaVuSans-44b" d="M 3907 3500 
L 4482 3500 
L 4482 0 
L 3907 0 
L 3907 3500 
z
M 4195 3584 
L 4195 3584 
z
M 2781 1038 
Q 2781 1319 2576 1466 
Q 2372 1613 1978 1613 
L 1159 1613 
L 1159 459 
L 1978 459 
Q 2372 459 2576 607 
Q 2781 756 2781 1038 
z
M 581 3500 
L 1159 3500 
L 1159 2072 
L 2003 2072 
Q 2672 2072 3033 1817 
Q 3394 1563 3394 1038 
Q 3394 513 3033 256 
Q 2672 0 2003 0 
L 581 0 
L 581 3500 
z
" transform="scale(0.015625)"/>
     </defs>
     <use xlink:href="#DejaVuSans-41c"/>
     <use xlink:href="#DejaVuSans-44b" x="86.279297"/>
     <use xlink:href="#DejaVuSans-441" x="165.234375"/>
     <use xlink:href="#DejaVuSans-43b" x="220.214844"/>
     <use xlink:href="#DejaVuSans-435" x="284.130859"/>
     <use xlink:href="#DejaVuSans-442" x="345.654297"/>
     <use xlink:href="#DejaVuSans-435" x="403.90625"/>
    </g>
   </g>
   <g id="PathCollection_15">
    <g clip-path="url(#p37fb936896)">
     <use xlink:href="#m677d42d012" x="807.999158" y="483.264" style="fill: #facc15; stroke: #facc15; stroke-width: 1.5"/>
    </g>
   </g>
   <g id="text_34">
    <!-- 15 -->
    <g style="fill: #facc15" transform="translate(802.272908 515.158594) scale(0.09 -0.09)">
     <use xlink:href="#DejaVuSans-31"/>
     <use xlink:href="#DejaVuSans-35" x="63.623047"/>
    </g>
   </g>
   <g id="text_35">
    <!-- Наш -->
    <g style="fill: #facc15" transform="translate(796.599939 459.260312) scale(0.1 -0.1)">
     <defs>
      <path id="DejaVuSans-41d" d="M 628 4666 
L 1259 4666 
L 1259 2753 
L 3553 2753 
L 3553 4666 
L 4184 4666 
L 4184 0 
L 3553 0 
L 3553 2222 
L 1259 2222 
L 1259 0 
L 628 0 
L 628 4666 
z
" transform="scale(0.015625)"/>
      <path id="DejaVuSans-448" d="M 3216 459 
L 4697 459 
L 4697 3500 
L 5275 3500 
L 5275 0 
L 581 0 
L 581 3500 
L 1159 3500 
L 1159 459 
L 2638 459 
L 2638 3500 
L 3216 3500 
L 3216 459 
z
" transform="scale(0.015625)"/>
     </defs>
     <use xlink:href="#DejaVuSans-41d"/>
     <use xlink:href="#DejaVuSans-430" x="75.195312"/>
     <use xlink:href="#DejaVuSans-448" x="136.474609"/>
    </g>
   </g>
   <g id="PathCollection_16">
    <g clip-path="url(#p37fb936896)">
     <use xlink:href="#m677d42d012" x="860.354526" y="483.264" style="fill: #facc15; stroke: #facc15; stroke-width: 1.5"/>
    </g>
   </g>
   <g id="text_36">
    <!-- 16 -->
    <g style="fill: #facc15" transform="translate(854.628276 515.158594) scale(0.09 -0.09)">
     <use xlink:href="#DejaVuSans-31"/>
     <use xlink:href="#DejaVuSans-36" x="63.623047"/>
    </g>
   </g>
   <g id="text_37">
    <!-- Он -->
    <g style="fill: #facc15" transform="translate(853.149839 459.260312) scale(0.1 -0.1)">
     <defs>
      <path id="DejaVuSans-41e" d="M 2522 4238 
Q 1834 4238 1429 3725 
Q 1025 3213 1025 2328 
Q 1025 1447 1429 934 
Q 1834 422 2522 422 
Q 3209 422 3611 934 
Q 4013 1447 4013 2328 
Q 4013 3213 3611 3725 
Q 3209 4238 2522 4238 
z
M 2522 4750 
Q 3503 4750 4090 4092 
Q 4678 3434 4678 2328 
Q 4678 1225 4090 567 
Q 3503 -91 2522 -91 
Q 1538 -91 948 565 
Q 359 1222 359 2328 
Q 359 3434 948 4092 
Q 1538 4750 2522 4750 
z
" transform="scale(0.015625)"/>
      <path id="DejaVuSans-43d" d="M 581 3500 
L 1159 3500 
L 1159 2072 
L 3025 2072 
L 3025 3500 
L 3603 3500 
L 3603 0 
L 3025 0 
L 3025 1613 
L 1159 1613 
L 1159 0 
L 581 0 
L 581 3500 
z
" transform="scale(0.015625)"/>
     </defs>
     <use xlink:href="#DejaVuSans-41e"/>
     <use xlink:href="#DejaVuSans-43d" x="78.710938"/>
    </g>
   </g>
   <g id="PathCollection_17">
    <g clip-path="url(#p37fb936896)">
     <use xlink:href="#m677d42d012" x="912.709895" y="483.264" style="fill: #facc15; stroke: #facc15; stroke-width: 1.5"/>
    </g>
   </g>
   <g id="text_38">
    <!-- 17 -->
    <g style="fill: #facc15" transform="translate(906.983645 515.158594) scale(0.09 -0.09)">
     <use xlink:href="#DejaVuSans-31"/>
     <use xlink:href="#DejaVuSans-37" x="63.623047"/>
    </g>
   </g>
   <g id="text_39">
    <!-- Покой -->
    <g style="fill: #facc15" transform="translate(896.561457 459.260312) scale(0.1 -0.1)">
     <defs>
      <path id="DejaVuSans-439" d="M 3578 3500 
L 3578 0 
L 3006 0 
L 3006 2809 
L 1319 0 
L 581 0 
L 581 3500 
L 1153 3500 
L 1153 697 
L 2838 3500 
L 3578 3500 
z
M 1102 4833 
L 1471 4833 
Q 1505 4599 1656 4481 
Q 1808 4364 2080 4364 
Q 2349 4364 2499 4480 
Q 2649 4596 2689 4833 
L 3058 4833 
Q 3027 4386 2780 4161 
Q 2533 3936 2080 3936 
Q 1627 3936 1380 4161 
Q 1133 4386 1102 4833 
z
" transform="scale(0.015625)"/>
     </defs>
     <use xlink:href="#DejaVuSans-41f"/>
     <use xlink:href="#DejaVuSans-43e" x="75.195312"/>
     <use xlink:href="#DejaVuSans-43a" x="136.376953"/>
     <use xlink:href="#DejaVuSans-43e" x="196.777344"/>
     <use xlink:href="#DejaVuSans-439" x="257.958984"/>
    </g>
   </g>
   <g id="PathCollection_18">
    <g clip-path="url(#p37fb936896)">
     <use xlink:href="#m677d42d012" x="965.065263" y="483.264" style="fill: #facc15; stroke: #facc15; stroke-width: 1.5"/>
    </g>
   </g>
   <g id="text_40">
    <!-- 18 -->
    <g style="fill: #facc15" transform="translate(959.339013 515.158594) scale(0.09 -0.09)">
     <use xlink:href="#DejaVuSans-31"/>
     <use xlink:href="#DejaVuSans-38" x="63.623047"/>
    </g>
   </g>
   <g id="text_41">
    <!-- Рцы -->
    <g style="fill: #facc15" transform="translate(954.699638 459.260312) scale(0.1 -0.1)">
     <defs>
      <path id="DejaVuSans-420" d="M 1259 4147 
L 1259 2394 
L 2053 2394 
Q 2494 2394 2734 2622 
Q 2975 2850 2975 3272 
Q 2975 3691 2734 3919 
Q 2494 4147 2053 4147 
L 1259 4147 
z
M 628 4666 
L 2053 4666 
Q 2838 4666 3239 4311 
Q 3641 3956 3641 3272 
Q 3641 2581 3239 2228 
Q 2838 1875 2053 1875 
L 1259 1875 
L 1259 0 
L 628 0 
L 628 4666 
z
" transform="scale(0.015625)"/>
      <path id="DejaVuSans-446" d="M 3603 0 
L 581 0 
L 581 3500 
L 1159 3500 
L 1159 459 
L 3025 459 
L 3025 3500 
L 3603 3500 
L 3603 459 
L 4063 459 
L 4063 -884 
L 3603 -884 
L 3603 0 
z
" transform="scale(0.015625)"/>
     </defs>
     <use xlink:href="#DejaVuSans-420"/>
     <use xlink:href="#DejaVuSans-446" x="60.302734"/>
     <use xlink:href="#DejaVuSans-44b" x="128.369141"/>
    </g>
   </g>
   <g id="PathCollection_19">
    <g clip-path="url(#p37fb936896)">
     <use xlink:href="#m677d42d012" x="1017.420632" y="483.264" style="fill: #facc15; stroke: #facc15; stroke-width: 1.5"/>
    </g>
   </g>
   <g id="text_42">
    <!-- 19 -->
    <g style="fill: #facc15" transform="translate(1011.694382 515.158594) scale(0.09 -0.09)">
     <use xlink:href="#DejaVuSans-31"/>
     <use xlink:href="#DejaVuSans-39" x="63.623047"/>
    </g>
   </g>
   <g id="text_43">
    <!-- Слово -->
    <g style="fill: #facc15" transform="translate(1001.667507 459.260312) scale(0.1 -0.1)">
     <use xlink:href="#DejaVuSans-421"/>
     <use xlink:href="#DejaVuSans-43b" x="69.824219"/>
     <use xlink:href="#DejaVuSans-43e" x="133.740234"/>
     <use xlink:href="#DejaVuSans-432" x="194.921875"/>
     <use xlink:href="#DejaVuSans-43e" x="253.857422"/>
    </g>
   </g>
   <g id="PathCollection_20">
    <g clip-path="url(#p37fb936896)">
     <use xlink:href="#m677d42d012" x="1069.776" y="483.264" style="fill: #facc15; stroke: #facc15; stroke-width: 1.5"/>
    </g>
   </g>
   <g id="text_44">
    <!-- 20 -->
    <g style="fill: #facc15" transform="translate(1064.04975 515.158594) scale(0.09 -0.09)">
     <use xlink:href="#DejaVuSans-32"/>
     <use xlink:href="#DejaVuSans-30" x="63.623047"/>
    </g>
   </g>
   <g id="text_45">
    <!-- Твердо -->
    <g style="fill: #facc15" transform="translate(1051.008031 459.260312) scale(0.1 -0.1)">
     <defs>
      <path id="DejaVuSans-422" d="M -19 4666 
L 3928 4666 
L 3928 4134 
L 2272 4134 
L 2272 0 
L 1638 0 
L 1638 4134 
L -19 4134 
L -19 4666 
z
" transform="scale(0.015625)"/>
     </defs>
     <use xlink:href="#DejaVuSans-422"/>
     <use xlink:href="#DejaVuSans-432" x="61.083984"/>
     <use xlink:href="#DejaVuSans-435" x="120.019531"/>
     <use xlink:href="#DejaVuSans-440" x="181.542969"/>
     <use xlink:href="#DejaVuSans-434" x="245.019531"/>
     <use xlink:href="#DejaVuSans-43e" x="314.160156"/>
    </g>
   </g>
   <g id="PathCollection_21">
    <defs>
     <path id="m26877dd9df" d="M -5.477226 5.477226 
L 5.477226 -5.477226 
M -5.477226 -5.477226 
L 5.477226 5.477226 
" style="stroke: #93c5fd; stroke-width: 1.5"/>
    </defs>
    <g clip-path="url(#p37fb936896)">
     <use xlink:href="#m26877dd9df" x="75.024" y="307.872" style="fill: #93c5fd; stroke: #93c5fd; stroke-width: 1.5"/>
    </g>
   </g>
   <g id="text_46">
    <!-- 21 -->
    <g style="fill: #93c5fd" transform="translate(69.29775 339.766594) scale(0.09 -0.09)">
     <use xlink:href="#DejaVuSans-32"/>
     <use xlink:href="#DejaVuSans-31" x="63.623047"/>
    </g>
   </g>
   <g id="text_47">
    <!-- Ук -->
    <g style="fill: #93c5fd" transform="translate(68.956812 283.868312) scale(0.1 -0.1)">
     <defs>
      <path id="DejaVuSans-423" d="M 2047 566 
Q 1981 409 1881 291 
Q 1634 0 850 0 
L 609 0 
L 609 531 
L 806 531 
Q 1178 531 1322 616 
Q 1409 669 1466 800 
L 1606 1131 
L 109 4666 
L 788 4666 
L 1947 1928 
L 3113 4666 
L 3791 4666 
L 2047 566 
z
" transform="scale(0.015625)"/>
     </defs>
     <use xlink:href="#DejaVuSans-423"/>
     <use xlink:href="#DejaVuSans-43a" x="60.9375"/>
    </g>
   </g>
   <g id="PathCollection_22">
    <g clip-path="url(#p37fb936896)">
     <use xlink:href="#m26877dd9df" x="146.077714" y="307.872" style="fill: #93c5fd; stroke: #93c5fd; stroke-width: 1.5"/>
    </g>
   </g>
   <g id="text_48">
    <!-- 22 -->
    <g style="fill: #93c5fd" transform="translate(140.351464 339.766594) scale(0.09 -0.09)">
     <use xlink:href="#DejaVuSans-32"/>
     <use xlink:href="#DejaVuSans-32" x="63.623047"/>
    </g>
   </g>
   <g id="text_49">
    <!-- Ферт -->
    <g style="fill: #93c5fd" transform="translate(132.610527 283.868312) scale(0.1 -0.1)">
     <use xlink:href="#DejaVuSans-424"/>
     <use xlink:href="#DejaVuSans-435" x="86.083984"/>
     <use xlink:href="#DejaVuSans-440" x="147.607422"/>
     <use xlink:href="#DejaVuSans-442" x="211.083984"/>
    </g>
   </g>
   <g id="PathCollection_23">
    <g clip-path="url(#p37fb936896)">
     <use xlink:href="#m26877dd9df" x="217.131429" y="307.872" style="fill: #93c5fd; stroke: #93c5fd; stroke-width: 1.5"/>
    </g>
   </g>
   <g id="text_50">
    <!-- 23 -->
    <g style="fill: #93c5fd" transform="translate(211.405179 339.766594) scale(0.09 -0.09)">
     <use xlink:href="#DejaVuSans-32"/>
     <use xlink:href="#DejaVuSans-33" x="63.623047"/>
    </g>
   </g>
   <g id="text_51">
    <!-- Хер -->
    <g style="fill: #93c5fd" transform="translate(207.455647 283.868312) scale(0.1 -0.1)">
     <defs>
      <path id="DejaVuSans-425" d="M 403 4666 
L 1081 4666 
L 2241 2931 
L 3406 4666 
L 4084 4666 
L 2584 2425 
L 4184 0 
L 3506 0 
L 2194 1984 
L 872 0 
L 191 0 
L 1856 2491 
L 403 4666 
z
" transform="scale(0.015625)"/>
     </defs>
     <use xlink:href="#DejaVuSans-425"/>
     <use xlink:href="#DejaVuSans-435" x="68.505859"/>
     <use xlink:href="#DejaVuSans-440" x="130.029297"/>
    </g>
   </g>
   <g id="PathCollection_24">
    <g clip-path="url(#p37fb936896)">
     <use xlink:href="#m26877dd9df" x="288.185143" y="307.872" style="fill: #93c5fd; stroke: #93c5fd; stroke-width: 1.5"/>
    </g>
   </g>
   <g id="text_52">
    <!-- 24 -->
    <g style="fill: #93c5fd" transform="translate(282.458893 339.766594) scale(0.09 -0.09)">
     <use xlink:href="#DejaVuSans-32"/>
     <use xlink:href="#DejaVuSans-34" x="63.623047"/>
    </g>
   </g>
   <g id="text_53">
    <!-- Ци -->
    <g style="fill: #93c5fd" transform="translate(281.053893 283.868312) scale(0.1 -0.1)">
     <defs>
      <path id="DejaVuSans-426" d="M 4184 0 
L 628 0 
L 628 4666 
L 1259 4666 
L 1259 531 
L 3553 531 
L 3553 4666 
L 4184 4666 
L 4184 531 
L 4716 531 
L 4716 -1003 
L 4184 -1003 
L 4184 0 
z
" transform="scale(0.015625)"/>
     </defs>
     <use xlink:href="#DejaVuSans-426"/>
     <use xlink:href="#DejaVuSans-438" x="77.636719"/>
    </g>
   </g>
   <g id="PathCollection_25">
    <g clip-path="url(#p37fb936896)">
     <use xlink:href="#m26877dd9df" x="359.238857" y="307.872" style="fill: #93c5fd; stroke: #93c5fd; stroke-width: 1.5"/>
    </g>
   </g>
   <g id="text_54">
    <!-- 25 -->
    <g style="fill: #93c5fd" transform="translate(353.512607 339.766594) scale(0.09 -0.09)">
     <use xlink:href="#DejaVuSans-32"/>
     <use xlink:href="#DejaVuSans-35" x="63.623047"/>
    </g>
   </g>
   <g id="text_55">
    <!-- Червь -->
    <g style="fill: #93c5fd" transform="translate(343.666201 283.868312) scale(0.1 -0.1)">
     <defs>
      <path id="DejaVuSans-427" d="M 3125 0 
L 3125 1913 
L 1822 1913 
Q 1241 1913 894 2277 
Q 547 2641 547 3384 
L 547 4666 
L 1175 4666 
L 1175 3434 
Q 1175 2938 1369 2691 
Q 1563 2444 1950 2444 
L 3125 2444 
L 3125 4666 
L 3759 4666 
L 3759 0 
L 3125 0 
z
" transform="scale(0.015625)"/>
     </defs>
     <use xlink:href="#DejaVuSans-427"/>
     <use xlink:href="#DejaVuSans-435" x="68.554688"/>
     <use xlink:href="#DejaVuSans-440" x="130.078125"/>
     <use xlink:href="#DejaVuSans-432" x="193.554688"/>
     <use xlink:href="#DejaVuSans-44c" x="252.490234"/>
    </g>
   </g>
   <g id="PathCollection_26">
    <g clip-path="url(#p37fb936896)">
     <use xlink:href="#m26877dd9df" x="430.292571" y="307.872" style="fill: #93c5fd; stroke: #93c5fd; stroke-width: 1.5"/>
    </g>
   </g>
   <g id="text_56">
    <!-- 26 -->
    <g style="fill: #93c5fd" transform="translate(424.566321 339.766594) scale(0.09 -0.09)">
     <use xlink:href="#DejaVuSans-32"/>
     <use xlink:href="#DejaVuSans-36" x="63.623047"/>
    </g>
   </g>
   <g id="text_57">
    <!-- Ша -->
    <g style="fill: #93c5fd" transform="translate(421.881634 283.868312) scale(0.1 -0.1)">
     <defs>
      <path id="DejaVuSans-428" d="M 3738 531 
L 5584 531 
L 5584 4666 
L 6216 4666 
L 6216 0 
L 628 0 
L 628 4666 
L 1259 4666 
L 1259 531 
L 3106 531 
L 3106 4666 
L 3738 4666 
L 3738 531 
z
" transform="scale(0.015625)"/>
     </defs>
     <use xlink:href="#DejaVuSans-428"/>
     <use xlink:href="#DejaVuSans-430" x="106.933594"/>
    </g>
   </g>
   <g id="PathCollection_27">
    <g clip-path="url(#p37fb936896)">
     <use xlink:href="#m26877dd9df" x="501.346286" y="307.872" style="fill: #93c5fd; stroke: #93c5fd; stroke-width: 1.5"/>
    </g>
   </g>
   <g id="text_58">
    <!-- 27 -->
    <g style="fill: #93c5fd" transform="translate(495.620036 339.766594) scale(0.09 -0.09)">
     <use xlink:href="#DejaVuSans-32"/>
     <use xlink:href="#DejaVuSans-37" x="63.623047"/>
    </g>
   </g>
   <g id="text_59">
    <!-- Ща -->
    <g style="fill: #93c5fd" transform="translate(492.813473 283.868312) scale(0.1 -0.1)">
     <defs>
      <path id="DejaVuSans-429" d="M 6216 0 
L 628 0 
L 628 4666 
L 1259 4666 
L 1259 531 
L 3106 531 
L 3106 4666 
L 3738 4666 
L 3738 531 
L 5584 531 
L 5584 4666 
L 6216 4666 
L 6216 531 
L 6747 531 
L 6747 -1003 
L 6216 -1003 
L 6216 0 
z
" transform="scale(0.015625)"/>
     </defs>
     <use xlink:href="#DejaVuSans-429"/>
     <use xlink:href="#DejaVuSans-430" x="109.375"/>
    </g>
   </g>
   <g id="PathCollection_28">
    <g clip-path="url(#p37fb936896)">
     <use xlink:href="#m26877dd9df" x="572.4" y="307.872" style="fill: #93c5fd; stroke: #93c5fd; stroke-width: 1.5"/>
    </g>
   </g>
   <g id="text_60">
    <!-- 28 -->
    <g style="fill: #93c5fd" transform="translate(566.67375 339.766594) scale(0.09 -0.09)">
     <use xlink:href="#DejaVuSans-32"/>
     <use xlink:href="#DejaVuSans-38" x="63.623047"/>
    </g>
   </g>
   <g id="text_61">
    <!-- Ъ -->
    <g style="fill: #93c5fd" transform="translate(568.2375 283.868312) scale(0.1 -0.1)">
     <defs>
      <path id="DejaVuSans-42a" d="M 1566 0 
L 1566 4134 
L 188 4134 
L 188 4666 
L 2197 4666 
L 2197 2747 
L 3241 2747 
Q 4025 2747 4450 2406 
Q 4875 2066 4875 1372 
Q 4875 681 4450 340 
Q 4025 0 3241 0 
L 1566 0 
z
M 4209 1372 
Q 4209 1806 3963 2019 
Q 3719 2228 3209 2228 
L 2197 2228 
L 2197 519 
L 3209 519 
Q 3713 519 3963 731 
Q 4209 941 4209 1372 
z
" transform="scale(0.015625)"/>
     </defs>
     <use xlink:href="#DejaVuSans-42a"/>
    </g>
   </g>
   <g id="PathCollection_29">
    <g clip-path="url(#p37fb936896)">
     <use xlink:href="#m26877dd9df" x="643.453714" y="307.872" style="fill: #93c5fd; stroke: #93c5fd; stroke-width: 1.5"/>
    </g>
   </g>
   <g id="text_62">
    <!-- 29 -->
    <g style="fill: #93c5fd" transform="translate(637.727464 339.766594) scale(0.09 -0.09)">
     <use xlink:href="#DejaVuSans-32"/>
     <use xlink:href="#DejaVuSans-39" x="63.623047"/>
    </g>
   </g>
   <g id="text_63">
    <!-- Ы -->
    <g style="fill: #93c5fd" transform="translate(639.041996 283.868312) scale(0.1 -0.1)">
     <defs>
      <path id="DejaVuSans-42b" d="M 3272 1372 
Q 3272 1806 3025 2019 
Q 2781 2228 2272 2228 
L 1259 2228 
L 1259 519 
L 2272 519 
Q 2781 519 3025 731 
Q 3272 941 3272 1372 
z
M 628 4666 
L 1259 4666 
L 1259 2747 
L 2303 2747 
Q 3088 2747 3513 2406 
Q 3938 2066 3938 1372 
Q 3938 681 3513 340 
Q 3088 0 2303 0 
L 628 0 
L 628 4666 
z
M 4388 4666 
L 5019 4666 
L 5019 0 
L 4388 0 
L 4388 4666 
z
" transform="scale(0.015625)"/>
     </defs>
     <use xlink:href="#DejaVuSans-42b"/>
    </g>
   </g>
   <g id="PathCollection_30">
    <g clip-path="url(#p37fb936896)">
     <use xlink:href="#m26877dd9df" x="714.507429" y="307.872" style="fill: #93c5fd; stroke: #93c5fd; stroke-width: 1.5"/>
    </g>
   </g>
   <g id="text_64">
    <!-- 30 -->
    <g style="fill: #93c5fd" transform="translate(708.781179 339.766594) scale(0.09 -0.09)">
     <use xlink:href="#DejaVuSans-33"/>
     <use xlink:href="#DejaVuSans-30" x="63.623047"/>
    </g>
   </g>
   <g id="text_65">
    <!-- Ь -->
    <g style="fill: #93c5fd" transform="translate(711.07696 283.868312) scale(0.1 -0.1)">
     <defs>
      <path id="DejaVuSans-42c" d="M 3272 1372 
Q 3272 1806 3025 2019 
Q 2781 2228 2272 2228 
L 1259 2228 
L 1259 519 
L 2272 519 
Q 2781 519 3025 731 
Q 3272 941 3272 1372 
z
M 628 4666 
L 1259 4666 
L 1259 2747 
L 2303 2747 
Q 3088 2747 3513 2406 
Q 3938 2066 3938 1372 
Q 3938 681 3513 340 
Q 3088 0 2303 0 
L 628 0 
L 628 4666 
z
" transform="scale(0.015625)"/>
     </defs>
     <use xlink:href="#DejaVuSans-42c"/>
    </g>
   </g>
   <g id="PathCollection_31">
    <g clip-path="url(#p37fb936896)">
     <use xlink:href="#m26877dd9df" x="785.561143" y="307.872" style="fill: #93c5fd; stroke: #93c5fd; stroke-width: 1.5"/>
    </g>
   </g>
   <g id="text_66">
    <!-- 31 -->
    <g style="fill: #93c5fd" transform="translate(779.834893 339.766594) scale(0.09 -0.09)">
     <use xlink:href="#DejaVuSans-33"/>
     <use xlink:href="#DejaVuSans-31" x="63.623047"/>
    </g>
   </g>
   <g id="text_67">
    <!-- Э -->
    <g style="fill: #93c5fd" transform="translate(782.069737 283.868312) scale(0.1 -0.1)">
     <defs>
      <path id="DejaVuSans-42d" d="M 347 1019 
Q 1006 428 1806 428 
Q 2631 428 3003 872 
Q 3375 1316 3444 2063 
L 950 2063 
L 950 2594 
L 3444 2594 
Q 3375 3341 3003 3786 
Q 2631 4231 1806 4231 
Q 1006 4231 347 3641 
L 347 4306 
Q 997 4750 1844 4750 
Q 2891 4750 3500 4101 
Q 4109 3453 4109 2331 
Q 4109 1206 3500 557 
Q 2891 -91 1844 -91 
Q 1009 -91 347 359 
L 347 1019 
z
" transform="scale(0.015625)"/>
     </defs>
     <use xlink:href="#DejaVuSans-42d"/>
    </g>
   </g>
   <g id="PathCollection_32">
    <g clip-path="url(#p37fb936896)">
     <use xlink:href="#m26877dd9df" x="856.614857" y="307.872" style="fill: #93c5fd; stroke: #93c5fd; stroke-width: 1.5"/>
    </g>
   </g>
   <g id="text_68">
    <!-- 32 -->
    <g style="fill: #93c5fd" transform="translate(850.888607 339.766594) scale(0.09 -0.09)">
     <use xlink:href="#DejaVuSans-33"/>
     <use xlink:href="#DejaVuSans-32" x="63.623047"/>
    </g>
   </g>
   <g id="text_69">
    <!-- Ю -->
    <g style="fill: #93c5fd" transform="translate(851.217201 283.868312) scale(0.1 -0.1)">
     <defs>
      <path id="DejaVuSans-42e" d="M 4394 4238 
Q 3706 4238 3300 3725 
Q 2897 3213 2897 2328 
Q 2897 1447 3300 934 
Q 3706 422 4394 422 
Q 5081 422 5481 934 
Q 5884 1447 5884 2328 
Q 5884 3213 5481 3725 
Q 5081 4238 4394 4238 
z
M 2241 2597 
Q 2284 3472 2847 4113 
Q 3409 4750 4394 4750 
Q 5375 4750 5963 4094 
Q 6550 3434 6550 2328 
Q 6550 1225 5963 569 
Q 5375 -91 4394 -91 
Q 3409 -91 2847 550 
Q 2284 1191 2241 2066 
L 1291 2066 
L 1291 0 
L 659 0 
L 659 4666 
L 1291 4666 
L 1291 2597 
L 2241 2597 
z
" transform="scale(0.015625)"/>
     </defs>
     <use xlink:href="#DejaVuSans-42e"/>
    </g>
   </g>
   <g id="PathCollection_33">
    <g clip-path="url(#p37fb936896)">
     <use xlink:href="#m26877dd9df" x="927.668571" y="307.872" style="fill: #93c5fd; stroke: #93c5fd; stroke-width: 1.5"/>
    </g>
   </g>
   <g id="text_70">
    <!-- 33 -->
    <g style="fill: #93c5fd" transform="translate(921.942321 339.766594) scale(0.09 -0.09)">
     <use xlink:href="#DejaVuSans-33"/>
     <use xlink:href="#DejaVuSans-33" x="63.623047"/>
    </g>
   </g>
   <g id="text_71">
    <!-- Я -->
    <g style="fill: #93c5fd" transform="translate(924.194353 283.868312) scale(0.1 -0.1)">
     <defs>
      <path id="DejaVuSans-42f" d="M 1284 3322 
Q 1284 2913 1517 2702 
Q 1750 2491 2206 2491 
L 3188 2491 
L 3188 4147 
L 2206 4147 
Q 1750 4147 1517 3939 
Q 1284 3731 1284 3322 
z
M 425 0 
L 1700 2041 
Q 1388 2122 988 2386 
Q 588 2650 588 3322 
Q 588 3966 994 4316 
Q 1400 4666 2206 4666 
L 3819 4666 
L 3819 0 
L 3188 0 
L 3188 1972 
L 2344 1972 
L 1113 0 
L 425 0 
z
" transform="scale(0.015625)"/>
     </defs>
     <use xlink:href="#DejaVuSans-42f"/>
    </g>
   </g>
   <g id="PathCollection_34">
    <g clip-path="url(#p37fb936896)">
     <use xlink:href="#m26877dd9df" x="998.722286" y="307.872" style="fill: #93c5fd; stroke: #93c5fd; stroke-width: 1.5"/>
    </g>
   </g>
   <g id="text_72">
    <!-- 34 -->
    <g style="fill: #93c5fd" transform="translate(992.996036 339.766594) scale(0.09 -0.09)">
     <use xlink:href="#DejaVuSans-33"/>
     <use xlink:href="#DejaVuSans-34" x="63.623047"/>
    </g>
   </g>
   <g id="text_73">
    <!-- ⊕ -->
    <g style="fill: #93c5fd" transform="translate(994.532442 283.868312) scale(0.1 -0.1)">
     <defs>
      <path id="DejaVuSans-2295" d="M 3306 3522 
Q 3016 3644 2681 3644 
Q 2347 3644 2056 3522 
Q 1769 3400 1531 3163 
Q 1291 2922 1172 2634 
Q 1053 2347 1053 2006 
Q 1053 1675 1172 1387 
Q 1291 1100 1531 859 
Q 1769 622 2056 500 
Q 2347 378 2681 378 
Q 3016 378 3306 500 
Q 3594 622 3831 859 
Q 4072 1100 4190 1387 
Q 4309 1675 4309 2006 
Q 4309 2347 4190 2634 
Q 4072 2922 3831 3163 
Q 3594 3400 3306 3522 
z
M 1878 3956 
Q 2250 4113 2681 4113 
Q 3113 4113 3484 3956 
Q 3856 3800 4163 3494 
Q 4472 3184 4625 2813 
Q 4778 2444 4778 2006 
Q 4778 1578 4625 1206 
Q 4472 838 4163 528 
Q 3856 222 3484 65 
Q 3113 -91 2681 -91 
Q 2250 -91 1878 65 
Q 1506 222 1200 528 
Q 891 838 738 1206 
Q 584 1578 584 2006 
Q 584 2444 738 2813 
Q 891 3184 1200 3494 
Q 1506 3800 1878 3956 
z
M 2947 3388 
L 2947 2272 
L 4059 2272 
L 4059 1741 
L 2947 1741 
L 2947 625 
L 2416 625 
L 2416 1741 
L 1303 1741 
L 1303 2272 
L 2416 2272 
L 2416 3388 
L 2947 3388 
z
" transform="scale(0.015625)"/>
     </defs>
     <use xlink:href="#DejaVuSans-2295"/>
    </g>
   </g>
   <g id="PathCollection_35">
    <g clip-path="url(#p37fb936896)">
     <use xlink:href="#m26877dd9df" x="1069.776" y="307.872" style="fill: #93c5fd; stroke: #93c5fd; stroke-width: 1.5"/>
    </g>
   </g>
   <g id="text_74">
    <!-- 35 -->
    <g style="fill: #93c5fd" transform="translate(1064.04975 339.766594) scale(0.09 -0.09)">
     <use xlink:href="#DejaVuSans-33"/>
     <use xlink:href="#DejaVuSans-35" x="63.623047"/>
    </g>
   </g>
   <g id="text_75">
    <!-- ∴ -->
    <g style="fill: #93c5fd" transform="translate(1066.59475 283.868312) scale(0.1 -0.1)">
     <defs>
      <path id="DejaVuSans-2234" d="M 380 1467 
L 1040 1467 
L 1040 673 
L 380 673 
L 380 1467 
z
M 3036 1467 
L 3696 1467 
L 3696 673 
L 3036 673 
L 3036 1467 
z
M 1708 3835 
L 2368 3835 
L 2368 3041 
L 1708 3041 
L 1708 3835 
z
" transform="scale(0.015625)"/>
     </defs>
     <use xlink:href="#DejaVuSans-2234"/>
    </g>
   </g>
   <g id="PathCollection_36">
    <defs>
     <path id="mdf475f55fa" d="M -5.477226 5.477226 
L 5.477226 -5.477226 
M -5.477226 -5.477226 
L 5.477226 5.477226 
" style="stroke: #a78bfa; stroke-width: 1.5"/>
    </defs>
    <g clip-path="url(#p37fb936896)">
     <use xlink:href="#mdf475f55fa" x="75.024" y="132.48" style="fill: #a78bfa; stroke: #a78bfa; stroke-width: 1.5"/>
    </g>
   </g>
   <g id="text_76">
    <!-- 36 -->
    <g style="fill: #a78bfa" transform="translate(69.29775 164.374594) scale(0.09 -0.09)">
     <use xlink:href="#DejaVuSans-33"/>
     <use xlink:href="#DejaVuSans-36" x="63.623047"/>
    </g>
   </g>
   <g id="text_77">
    <!-- ∞ -->
    <g style="fill: #a78bfa" transform="translate(70.859156 108.476312) scale(0.1 -0.1)">
     <defs>
      <path id="DejaVuSans-221e" d="M 2916 1091 
Q 2819 1203 2666 1466 
Q 2456 1091 2272 925 
Q 2041 725 1681 725 
Q 1259 725 981 1041 
Q 688 1372 688 1919 
Q 688 2444 981 2800 
Q 1244 3116 1688 3116 
Q 1916 3116 2084 3022 
Q 2281 2919 2416 2741 
Q 2541 2581 2666 2366 
Q 2875 2741 3059 2906 
Q 3291 3106 3650 3106 
Q 4072 3106 4350 2791 
Q 4644 2459 4644 1913 
Q 4644 1388 4350 1031 
Q 4088 716 3644 716 
Q 3416 716 3247 809 
Q 3078 894 2916 1091 
z
M 1647 1134 
Q 2163 1134 2472 1884 
Q 2075 2703 1647 2703 
Q 1334 2703 1175 2478 
Q 1003 2238 1003 1919 
Q 1003 1569 1175 1353 
Q 1350 1134 1647 1134 
z
M 3684 2697 
Q 3219 2697 2859 1947 
Q 3253 1128 3684 1128 
Q 3997 1128 4156 1353 
Q 4328 1594 4328 1913 
Q 4328 2263 4156 2478 
Q 3981 2697 3684 2697 
z
" transform="scale(0.015625)"/>
     </defs>
     <use xlink:href="#DejaVuSans-221e"/>
    </g>
   </g>
   <g id="PathCollection_37">
    <g clip-path="url(#p37fb936896)">
     <use xlink:href="#mdf475f55fa" x="151.543385" y="132.48" style="fill: #a78bfa; stroke: #a78bfa; stroke-width: 1.5"/>
    </g>
   </g>
   <g id="text_78">
    <!-- 37 -->
    <g style="fill: #a78bfa" transform="translate(145.817135 164.374594) scale(0.09 -0.09)">
     <use xlink:href="#DejaVuSans-33"/>
     <use xlink:href="#DejaVuSans-37" x="63.623047"/>
    </g>
   </g>
   <g id="text_79">
    <!-- Резон -->
    <g style="fill: #a78bfa" transform="translate(136.46526 108.476312) scale(0.1 -0.1)">
     <use xlink:href="#DejaVuSans-420"/>
     <use xlink:href="#DejaVuSans-435" x="60.302734"/>
     <use xlink:href="#DejaVuSans-437" x="121.826172"/>
     <use xlink:href="#DejaVuSans-43e" x="175"/>
     <use xlink:href="#DejaVuSans-43d" x="236.181641"/>
    </g>
   </g>
   <g id="PathCollection_38">
    <g clip-path="url(#p37fb936896)">
     <use xlink:href="#mdf475f55fa" x="228.062769" y="132.48" style="fill: #a78bfa; stroke: #a78bfa; stroke-width: 1.5"/>
    </g>
   </g>
   <g id="text_80">
    <!-- 38 -->
    <g style="fill: #a78bfa" transform="translate(222.336519 164.374594) scale(0.09 -0.09)">
     <use xlink:href="#DejaVuSans-33"/>
     <use xlink:href="#DejaVuSans-38" x="63.623047"/>
    </g>
   </g>
   <g id="text_81">
    <!-- Явь -->
    <g style="fill: #a78bfa" transform="translate(218.6948 108.476312) scale(0.1 -0.1)">
     <use xlink:href="#DejaVuSans-42f"/>
     <use xlink:href="#DejaVuSans-432" x="69.482422"/>
     <use xlink:href="#DejaVuSans-44c" x="128.417969"/>
    </g>
   </g>
   <g id="PathCollection_39">
    <g clip-path="url(#p37fb936896)">
     <use xlink:href="#mdf475f55fa" x="304.582154" y="132.48" style="fill: #a78bfa; stroke: #a78bfa; stroke-width: 1.5"/>
    </g>
   </g>
   <g id="text_82">
    <!-- 39 -->
    <g style="fill: #a78bfa" transform="translate(298.855904 164.374594) scale(0.09 -0.09)">
     <use xlink:href="#DejaVuSans-33"/>
     <use xlink:href="#DejaVuSans-39" x="63.623047"/>
    </g>
   </g>
   <g id="text_83">
    <!-- Поле -->
    <g style="fill: #a78bfa" transform="translate(291.489966 108.476312) scale(0.1 -0.1)">
     <use xlink:href="#DejaVuSans-41f"/>
     <use xlink:href="#DejaVuSans-43e" x="75.195312"/>
     <use xlink:href="#DejaVuSans-43b" x="136.376953"/>
     <use xlink:href="#DejaVuSans-435" x="200.292969"/>
    </g>
   </g>
   <g id="PathCollection_40">
    <g clip-path="url(#p37fb936896)">
     <use xlink:href="#mdf475f55fa" x="381.101538" y="132.48" style="fill: #a78bfa; stroke: #a78bfa; stroke-width: 1.5"/>
    </g>
   </g>
   <g id="text_84">
    <!-- 40 -->
    <g style="fill: #a78bfa" transform="translate(375.375288 164.374594) scale(0.09 -0.09)">
     <use xlink:href="#DejaVuSans-34"/>
     <use xlink:href="#DejaVuSans-30" x="63.623047"/>
    </g>
   </g>
   <g id="text_85">
    <!-- Точка -->
    <g style="fill: #a78bfa" transform="translate(365.949976 108.476312) scale(0.1 -0.1)">
     <defs>
      <path id="DejaVuSans-447" d="M 2625 0 
L 2625 1472 
L 1553 1472 
Q 1075 1472 756 1769 
Q 469 2038 469 2613 
L 469 3500 
L 1044 3500 
L 1044 2666 
Q 1044 2300 1206 2116 
Q 1372 1931 1697 1931 
L 2625 1931 
L 2625 3500 
L 3200 3500 
L 3200 0 
L 2625 0 
z
" transform="scale(0.015625)"/>
     </defs>
     <use xlink:href="#DejaVuSans-422"/>
     <use xlink:href="#DejaVuSans-43e" x="61.083984"/>
     <use xlink:href="#DejaVuSans-447" x="122.265625"/>
     <use xlink:href="#DejaVuSans-43a" x="181.347656"/>
     <use xlink:href="#DejaVuSans-430" x="241.748047"/>
    </g>
   </g>
   <g id="PathCollection_41">
    <g clip-path="url(#p37fb936896)">
     <use xlink:href="#mdf475f55fa" x="457.620923" y="132.48" style="fill: #a78bfa; stroke: #a78bfa; stroke-width: 1.5"/>
    </g>
   </g>
   <g id="text_86">
    <!-- 41 -->
    <g style="fill: #a78bfa" transform="translate(451.894673 164.374594) scale(0.09 -0.09)">
     <use xlink:href="#DejaVuSans-34"/>
     <use xlink:href="#DejaVuSans-31" x="63.623047"/>
    </g>
   </g>
   <g id="text_87">
    <!-- Архе -->
    <g style="fill: #a78bfa" transform="translate(444.990454 108.476312) scale(0.1 -0.1)">
     <defs>
      <path id="DejaVuSans-445" d="M 3513 3500 
L 2247 1797 
L 3578 0 
L 2900 0 
L 1881 1375 
L 863 0 
L 184 0 
L 1544 1831 
L 300 3500 
L 978 3500 
L 1906 2253 
L 2834 3500 
L 3513 3500 
z
" transform="scale(0.015625)"/>
     </defs>
     <use xlink:href="#DejaVuSans-410"/>
     <use xlink:href="#DejaVuSans-440" x="68.408203"/>
     <use xlink:href="#DejaVuSans-445" x="131.884766"/>
     <use xlink:href="#DejaVuSans-435" x="191.064453"/>
    </g>
   </g>
   <g id="PathCollection_42">
    <g clip-path="url(#p37fb936896)">
     <use xlink:href="#mdf475f55fa" x="534.140308" y="132.48" style="fill: #a78bfa; stroke: #a78bfa; stroke-width: 1.5"/>
    </g>
   </g>
   <g id="text_88">
    <!-- 42 -->
    <g style="fill: #a78bfa" transform="translate(528.414058 164.374594) scale(0.09 -0.09)">
     <use xlink:href="#DejaVuSans-34"/>
     <use xlink:href="#DejaVuSans-32" x="63.623047"/>
    </g>
   </g>
   <g id="text_89">
    <!-- Тень -->
    <g style="fill: #a78bfa" transform="translate(521.794214 108.476312) scale(0.1 -0.1)">
     <use xlink:href="#DejaVuSans-422"/>
     <use xlink:href="#DejaVuSans-435" x="61.083984"/>
     <use xlink:href="#DejaVuSans-43d" x="122.607422"/>
     <use xlink:href="#DejaVuSans-44c" x="187.988281"/>
    </g>
   </g>
   <g id="PathCollection_43">
    <g clip-path="url(#p37fb936896)">
     <use xlink:href="#mdf475f55fa" x="610.659692" y="132.48" style="fill: #a78bfa; stroke: #a78bfa; stroke-width: 1.5"/>
    </g>
   </g>
   <g id="text_90">
    <!-- 43 -->
    <g style="fill: #a78bfa" transform="translate(604.933442 164.374594) scale(0.09 -0.09)">
     <use xlink:href="#DejaVuSans-34"/>
     <use xlink:href="#DejaVuSans-33" x="63.623047"/>
    </g>
   </g>
   <g id="text_91">
    <!-- Врата -->
    <g style="fill: #a78bfa" transform="translate(595.01438 108.476312) scale(0.1 -0.1)">
     <use xlink:href="#DejaVuSans-412"/>
     <use xlink:href="#DejaVuSans-440" x="68.603516"/>
     <use xlink:href="#DejaVuSans-430" x="132.080078"/>
     <use xlink:href="#DejaVuSans-442" x="193.359375"/>
     <use xlink:href="#DejaVuSans-430" x="251.611328"/>
    </g>
   </g>
   <g id="PathCollection_44">
    <g clip-path="url(#p37fb936896)">
     <use xlink:href="#mdf475f55fa" x="687.179077" y="132.48" style="fill: #a78bfa; stroke: #a78bfa; stroke-width: 1.5"/>
    </g>
   </g>
   <g id="text_92">
    <!-- 44 -->
    <g style="fill: #a78bfa" transform="translate(681.452827 164.374594) scale(0.09 -0.09)">
     <use xlink:href="#DejaVuSans-34"/>
     <use xlink:href="#DejaVuSans-34" x="63.623047"/>
    </g>
   </g>
   <g id="text_93">
    <!-- Лик -->
    <g style="fill: #a78bfa" transform="translate(677.149389 108.476312) scale(0.1 -0.1)">
     <use xlink:href="#DejaVuSans-41b"/>
     <use xlink:href="#DejaVuSans-438" x="75.195312"/>
     <use xlink:href="#DejaVuSans-43a" x="140.185547"/>
    </g>
   </g>
   <g id="PathCollection_45">
    <g clip-path="url(#p37fb936896)">
     <use xlink:href="#mdf475f55fa" x="763.698462" y="132.48" style="fill: #a78bfa; stroke: #a78bfa; stroke-width: 1.5"/>
    </g>
   </g>
   <g id="text_94">
    <!-- 45 -->
    <g style="fill: #a78bfa" transform="translate(757.972212 164.374594) scale(0.09 -0.09)">
     <use xlink:href="#DejaVuSans-34"/>
     <use xlink:href="#DejaVuSans-35" x="63.623047"/>
    </g>
   </g>
   <g id="text_95">
    <!-- Суть -->
    <g style="fill: #a78bfa" transform="translate(751.388305 108.476312) scale(0.1 -0.1)">
     <use xlink:href="#DejaVuSans-421"/>
     <use xlink:href="#DejaVuSans-443" x="69.824219"/>
     <use xlink:href="#DejaVuSans-442" x="129.003906"/>
     <use xlink:href="#DejaVuSans-44c" x="187.255859"/>
    </g>
   </g>
   <g id="PathCollection_46">
    <g clip-path="url(#p37fb936896)">
     <use xlink:href="#mdf475f55fa" x="840.217846" y="132.48" style="fill: #a78bfa; stroke: #a78bfa; stroke-width: 1.5"/>
    </g>
   </g>
   <g id="text_96">
    <!-- 46 -->
    <g style="fill: #a78bfa" transform="translate(834.491596 164.374594) scale(0.09 -0.09)">
     <use xlink:href="#DejaVuSans-34"/>
     <use xlink:href="#DejaVuSans-36" x="63.623047"/>
    </g>
   </g>
   <g id="text_97">
    <!-- Глас -->
    <g style="fill: #a78bfa" transform="translate(828.159252 108.476312) scale(0.1 -0.1)">
     <use xlink:href="#DejaVuSans-413"/>
     <use xlink:href="#DejaVuSans-43b" x="60.986328"/>
     <use xlink:href="#DejaVuSans-430" x="124.902344"/>
     <use xlink:href="#DejaVuSans-441" x="186.181641"/>
    </g>
   </g>
   <g id="PathCollection_47">
    <g clip-path="url(#p37fb936896)">
     <use xlink:href="#mdf475f55fa" x="916.737231" y="132.48" style="fill: #a78bfa; stroke: #a78bfa; stroke-width: 1.5"/>
    </g>
   </g>
   <g id="text_98">
    <!-- 47 -->
    <g style="fill: #a78bfa" transform="translate(911.010981 164.374594) scale(0.09 -0.09)">
     <use xlink:href="#DejaVuSans-34"/>
     <use xlink:href="#DejaVuSans-37" x="63.623047"/>
    </g>
   </g>
   <g id="text_99">
    <!-- Дыхание -->
    <g style="fill: #a78bfa" transform="translate(893.265356 108.476312) scale(0.1 -0.1)">
     <use xlink:href="#DejaVuSans-414"/>
     <use xlink:href="#DejaVuSans-44b" x="78.125"/>
     <use xlink:href="#DejaVuSans-445" x="157.080078"/>
     <use xlink:href="#DejaVuSans-430" x="216.259766"/>
     <use xlink:href="#DejaVuSans-43d" x="277.539062"/>
     <use xlink:href="#DejaVuSans-438" x="342.919922"/>
     <use xlink:href="#DejaVuSans-435" x="407.910156"/>
    </g>
   </g>
   <g id="PathCollection_48">
    <g clip-path="url(#p37fb936896)">
     <use xlink:href="#mdf475f55fa" x="993.256615" y="132.48" style="fill: #a78bfa; stroke: #a78bfa; stroke-width: 1.5"/>
    </g>
   </g>
   <g id="text_100">
    <!-- 48 -->
    <g style="fill: #a78bfa" transform="translate(987.530365 164.374594) scale(0.09 -0.09)">
     <use xlink:href="#DejaVuSans-34"/>
     <use xlink:href="#DejaVuSans-38" x="63.623047"/>
    </g>
   </g>
   <g id="text_101">
    <!-- Вибрация -->
    <g style="fill: #a78bfa" transform="translate(967.594897 108.476312) scale(0.1 -0.1)">
     <use xlink:href="#DejaVuSans-412"/>
     <use xlink:href="#DejaVuSans-438" x="68.603516"/>
     <use xlink:href="#DejaVuSans-431" x="133.59375"/>
     <use xlink:href="#DejaVuSans-440" x="195.263672"/>
     <use xlink:href="#DejaVuSans-430" x="258.740234"/>
     <use xlink:href="#DejaVuSans-446" x="320.019531"/>
     <use xlink:href="#DejaVuSans-438" x="388.085938"/>
     <use xlink:href="#DejaVuSans-44f" x="453.076172"/>
    </g>
   </g>
   <g id="PathCollection_49">
    <g clip-path="url(#p37fb936896)">
     <use xlink:href="#mdf475f55fa" x="1069.776" y="132.48" style="fill: #a78bfa; stroke: #a78bfa; stroke-width: 1.5"/>
    </g>
   </g>
   <g id="text_102">
    <!-- 49 -->
    <g style="fill: #a78bfa" transform="translate(1064.04975 164.374594) scale(0.09 -0.09)">
     <use xlink:href="#DejaVuSans-34"/>
     <use xlink:href="#DejaVuSans-39" x="63.623047"/>
    </g>
   </g>
   <g id="text_103">
    <!-- Свет -->
    <g style="fill: #a78bfa" transform="translate(1057.348656 108.476312) scale(0.1 -0.1)">
     <use xlink:href="#DejaVuSans-421"/>
     <use xlink:href="#DejaVuSans-432" x="69.824219"/>
     <use xlink:href="#DejaVuSans-435" x="128.759766"/>
     <use xlink:href="#DejaVuSans-442" x="190.283203"/>
    </g>
   </g>
   <g id="text_104">
    <!-- © Архитектоника психики · Постер-матрица 1–49 (SVG/PDF) -->
    <g style="fill: #e5e7eb" transform="translate(413.130469 586.247375) scale(0.1 -0.1)">
     <defs>
      <path id="DejaVuSans-a9" d="M 3200 4641 
Q 3675 4641 4086 4469 
Q 4497 4297 4838 3956 
Q 5178 3616 5347 3206 
Q 5516 2797 5516 2316 
Q 5516 1841 5347 1433 
Q 5178 1025 4838 684 
Q 4497 344 4086 172 
Q 3675 0 3200 0 
Q 2725 0 2314 172 
Q 1903 344 1563 684 
Q 1222 1025 1053 1433 
Q 884 1841 884 2316 
Q 884 2797 1053 3206 
Q 1222 3616 1563 3956 
Q 1903 4297 2314 4469 
Q 2725 4641 3200 4641 
z
M 3200 4319 
Q 2791 4319 2437 4172 
Q 2084 4025 1791 3731 
Q 1497 3438 1347 3080 
Q 1197 2722 1197 2316 
Q 1197 1913 1347 1558 
Q 1497 1203 1791 909 
Q 2084 616 2437 467 
Q 2791 319 3200 319 
Q 3613 319 3967 467 
Q 4322 616 4616 909 
Q 4906 1200 5051 1553 
Q 5197 1906 5197 2316 
Q 5197 2731 5050 3086 
Q 4903 3441 4616 3731 
Q 4322 4025 3967 4172 
Q 3613 4319 3200 4319 
z
M 4134 3553 
L 4134 3150 
Q 3928 3253 3725 3303 
Q 3522 3353 3316 3353 
Q 2850 3353 2589 3079 
Q 2328 2806 2328 2316 
Q 2328 1819 2595 1547 
Q 2863 1275 3347 1275 
Q 3547 1275 3737 1323 
Q 3928 1372 4134 1478 
L 4134 1081 
Q 3925 991 3711 947 
Q 3497 903 3278 903 
Q 2603 903 2211 1284 
Q 1819 1666 1819 2316 
Q 1819 2969 2211 3347 
Q 2603 3725 3278 3725 
Q 3506 3725 3718 3681 
Q 3931 3638 4134 3553 
z
" transform="scale(0.015625)"/>
      <path id="DejaVuSans-43f" d="M 3603 3500 
L 3603 0 
L 3025 0 
L 3025 3041 
L 1159 3041 
L 1159 0 
L 581 0 
L 581 3500 
L 3603 3500 
z
" transform="scale(0.015625)"/>
      <path id="DejaVuSans-b7" d="M 684 2619 
L 1344 2619 
L 1344 1825 
L 684 1825 
L 684 2619 
z
" transform="scale(0.015625)"/>
      <path id="DejaVuSans-2d" d="M 313 2009 
L 1997 2009 
L 1997 1497 
L 313 1497 
L 313 2009 
z
" transform="scale(0.015625)"/>
      <path id="DejaVuSans-2013" d="M 313 1978 
L 2888 1978 
L 2888 1528 
L 313 1528 
L 313 1978 
z
" transform="scale(0.015625)"/>
      <path id="DejaVuSans-28" d="M 1984 4856 
Q 1566 4138 1362 3434 
Q 1159 2731 1159 2009 
Q 1159 1288 1364 580 
Q 1569 -128 1984 -844 
L 1484 -844 
Q 1016 -109 783 600 
Q 550 1309 550 2009 
Q 550 2706 781 3412 
Q 1013 4119 1484 4856 
L 1984 4856 
z
" transform="scale(0.015625)"/>
      <path id="DejaVuSans-53" d="M 3425 4513 
L 3425 3897 
Q 3066 4069 2747 4153 
Q 2428 4238 2131 4238 
Q 1616 4238 1336 4038 
Q 1056 3838 1056 3469 
Q 1056 3159 1242 3001 
Q 1428 2844 1947 2747 
L 2328 2669 
Q 3034 2534 3370 2195 
Q 3706 1856 3706 1288 
Q 3706 609 3251 259 
Q 2797 -91 1919 -91 
Q 1588 -91 1214 -16 
Q 841 59 441 206 
L 441 856 
Q 825 641 1194 531 
Q 1563 422 1919 422 
Q 2459 422 2753 634 
Q 3047 847 3047 1241 
Q 3047 1584 2836 1778 
Q 2625 1972 2144 2069 
L 1759 2144 
Q 1053 2284 737 2584 
Q 422 2884 422 3419 
Q 422 4038 858 4394 
Q 1294 4750 2059 4750 
Q 2388 4750 2728 4690 
Q 3069 4631 3425 4513 
z
" transform="scale(0.015625)"/>
      <path id="DejaVuSans-56" d="M 1831 0 
L 50 4666 
L 709 4666 
L 2188 738 
L 3669 4666 
L 4325 4666 
L 2547 0 
L 1831 0 
z
" transform="scale(0.015625)"/>
      <path id="DejaVuSans-47" d="M 3809 666 
L 3809 1919 
L 2778 1919 
L 2778 2438 
L 4434 2438 
L 4434 434 
Q 4069 175 3628 42 
Q 3188 -91 2688 -91 
Q 1594 -91 976 548 
Q 359 1188 359 2328 
Q 359 3472 976 4111 
Q 1594 4750 2688 4750 
Q 3144 4750 3555 4637 
Q 3966 4525 4313 4306 
L 4313 3634 
Q 3963 3931 3569 4081 
Q 3175 4231 2741 4231 
Q 1884 4231 1454 3753 
Q 1025 3275 1025 2328 
Q 1025 1384 1454 906 
Q 1884 428 2741 428 
Q 3075 428 3337 486 
Q 3600 544 3809 666 
z
" transform="scale(0.015625)"/>
      <path id="DejaVuSans-2f" d="M 1625 4666 
L 2156 4666 
L 531 -594 
L 0 -594 
L 1625 4666 
z
" transform="scale(0.015625)"/>
      <path id="DejaVuSans-50" d="M 1259 4147 
L 1259 2394 
L 2053 2394 
Q 2494 2394 2734 2622 
Q 2975 2850 2975 3272 
Q 2975 3691 2734 3919 
Q 2494 4147 2053 4147 
L 1259 4147 
z
M 628 4666 
L 2053 4666 
Q 2838 4666 3239 4311 
Q 3641 3956 3641 3272 
Q 3641 2581 3239 2228 
Q 2838 1875 2053 1875 
L 1259 1875 
L 1259 0 
L 628 0 
L 628 4666 
z
" transform="scale(0.015625)"/>
      <path id="DejaVuSans-44" d="M 1259 4147 
L 1259 519 
L 2022 519 
Q 2988 519 3436 956 
Q 3884 1394 3884 2338 
Q 3884 3275 3436 3711 
Q 2988 4147 2022 4147 
L 1259 4147 
z
M 628 4666 
L 1925 4666 
Q 3281 4666 3915 4102 
Q 4550 3538 4550 2338 
Q 4550 1131 3912 565 
Q 3275 0 1925 0 
L 628 0 
L 628 4666 
z
" transform="scale(0.015625)"/>
      <path id="DejaVuSans-46" d="M 628 4666 
L 3309 4666 
L 3309 4134 
L 1259 4134 
L 1259 2759 
L 3109 2759 
L 3109 2228 
L 1259 2228 
L 1259 0 
L 628 0 
L 628 4666 
z
" transform="scale(0.015625)"/>
      <path id="DejaVuSans-29" d="M 513 4856 
L 1013 4856 
Q 1481 4119 1714 3412 
Q 1947 2706 1947 2009 
Q 1947 1309 1714 600 
Q 1481 -109 1013 -844 
L 513 -844 
Q 928 -128 1133 580 
Q 1338 1288 1338 2009 
Q 1338 2731 1133 3434 
Q 928 4138 513 4856 
z
" transform="scale(0.015625)"/>
     </defs>
     <use xlink:href="#DejaVuSans-a9"/>
     <use xlink:href="#DejaVuSans-20" x="100"/>
     <use xlink:href="#DejaVuSans-410" x="131.787109"/>
     <use xlink:href="#DejaVuSans-440" x="200.195312"/>
     <use xlink:href="#DejaVuSans-445" x="263.671875"/>
     <use xlink:href="#DejaVuSans-438" x="322.851562"/>
     <use xlink:href="#DejaVuSans-442" x="387.841797"/>
     <use xlink:href="#DejaVuSans-435" x="446.09375"/>
     <use xlink:href="#DejaVuSans-43a" x="507.617188"/>
     <use xlink:href="#DejaVuSans-442" x="568.017578"/>
     <use xlink:href="#DejaVuSans-43e" x="626.269531"/>
     <use xlink:href="#DejaVuSans-43d" x="687.451172"/>
     <use xlink:href="#DejaVuSans-438" x="752.832031"/>
     <use xlink:href="#DejaVuSans-43a" x="817.822266"/>
     <use xlink:href="#DejaVuSans-430" x="878.222656"/>
     <use xlink:href="#DejaVuSans-20" x="939.501953"/>
     <use xlink:href="#DejaVuSans-43f" x="971.289062"/>
     <use xlink:href="#DejaVuSans-441" x="1036.669922"/>
     <use xlink:href="#DejaVuSans-438" x="1091.650391"/>
     <use xlink:href="#DejaVuSans-445" x="1156.640625"/>
     <use xlink:href="#DejaVuSans-438" x="1215.820312"/>
     <use xlink:href="#DejaVuSans-43a" x="1280.810547"/>
     <use xlink:href="#DejaVuSans-438" x="1341.210938"/>
     <use xlink:href="#DejaVuSans-20" x="1406.201172"/>
     <use xlink:href="#DejaVuSans-b7" x="1437.988281"/>
     <use xlink:href="#DejaVuSans-20" x="1469.775391"/>
     <use xlink:href="#DejaVuSans-41f" x="1501.5625"/>
     <use xlink:href="#DejaVuSans-43e" x="1576.757812"/>
     <use xlink:href="#DejaVuSans-441" x="1637.939453"/>
     <use xlink:href="#DejaVuSans-442" x="1692.919922"/>
     <use xlink:href="#DejaVuSans-435" x="1751.171875"/>
     <use xlink:href="#DejaVuSans-440" x="1812.695312"/>
     <use xlink:href="#DejaVuSans-2d" x="1876.171875"/>
     <use xlink:href="#DejaVuSans-43c" x="1912.255859"/>
     <use xlink:href="#DejaVuSans-430" x="1987.695312"/>
     <use xlink:href="#DejaVuSans-442" x="2048.974609"/>
     <use xlink:href="#DejaVuSans-440" x="2107.226562"/>
     <use xlink:href="#DejaVuSans-438" x="2170.703125"/>
     <use xlink:href="#DejaVuSans-446" x="2235.693359"/>
     <use xlink:href="#DejaVuSans-430" x="2303.759766"/>
     <use xlink:href="#DejaVuSans-20" x="2365.039062"/>
     <use xlink:href="#DejaVuSans-31" x="2396.826172"/>
     <use xlink:href="#DejaVuSans-2013" x="2460.449219"/>
     <use xlink:href="#DejaVuSans-34" x="2510.449219"/>
     <use xlink:href="#DejaVuSans-39" x="2574.072266"/>
     <use xlink:href="#DejaVuSans-20" x="2637.695312"/>
     <use xlink:href="#DejaVuSans-28" x="2669.482422"/>
     <use xlink:href="#DejaVuSans-53" x="2708.496094"/>
     <use xlink:href="#DejaVuSans-56" x="2771.972656"/>
     <use xlink:href="#DejaVuSans-47" x="2840.380859"/>
     <use xlink:href="#DejaVuSans-2f" x="2917.871094"/>
     <use xlink:href="#DejaVuSans-50" x="2951.5625"/>
     <use xlink:href="#DejaVuSans-44" x="3011.865234"/>
     <use xlink:href="#DejaVuSans-46" x="3088.867188"/>
     <use xlink:href="#DejaVuSans-29" x="3146.386719"/>
    </g>
   </g>
  </g>
 </g>
 <defs>
  <clipPath id="p37fb936896">
   <rect x="7.2" y="7.2" width="1130.4" height="626.4"/>
  </clipPath>
 </defs>
</svg>
